<svg width="170" height="40" viewBox="0 0 170 40" fill="none" xmlns="http://www.w3.org/2000/svg">
<path d="M20 27.9994C15.5817 27.9994 12 24.4178 12 19.9997C12 15.5816 15.5817 12 20 12C24.4183 12 28 15.5816 28 19.9997C28 24.4178 24.4183 27.9994 20 27.9994Z" fill="#FEFEFE"/>
<path d="M4.50172 22.7316C2.18339 23.1404 0.594293 25.3798 1.48423 27.5592C2.72668 30.6018 4.70885 33.3126 7.2786 35.4309C10.9531 38.4597 15.5878 40.0782 20.3491 39.9952C25.1105 39.9121 29.6859 38.1328 33.2526 34.9775C35.7467 32.7709 37.6331 29.9924 38.7687 26.9084C39.5821 24.6993 37.9157 22.5167 35.5845 22.1891C33.2534 21.8615 31.1603 23.5583 30.0089 25.6115C29.3847 26.7244 28.5745 27.7341 27.6038 28.5929C25.5574 30.4034 22.9322 31.4241 20.2005 31.4719C17.4686 31.5195 14.8094 30.591 12.7011 28.853C11.701 28.0287 10.8561 27.0479 10.1934 25.9574C8.97105 23.9456 6.82005 22.3229 4.50172 22.7316Z" fill="#FEFEFE"/>
<path d="M39.8453 22.4985C39.9475 21.6798 40 20.8456 40 19.9993C40 8.95398 31.0457 0 20 0C8.95431 0 0 8.95398 0 19.9993C0 21.0855 0.0866 22.1515 0.25328 23.1908C1.17192 21.9332 2.60568 21.0355 4.15435 20.7624C5.82993 20.467 7.35277 20.8734 8.64036 21.633C8.56429 21.0994 8.52493 20.5539 8.52493 19.9993C8.52493 13.662 13.6625 8.52462 20 8.52462C26.3375 8.52462 31.4751 13.662 31.4751 19.9993C31.4751 20.4171 31.4527 20.8298 31.4092 21.236C32.6696 20.4317 34.1776 19.9721 35.8628 20.209C37.4196 20.4278 38.8833 21.2744 39.8453 22.4985Z" fill="#C3DF94"/>
<text x="52" y="30" font-family="Arial, Helvetica, sans-serif" font-size="26" font-weight="800" fill="#FEFEFE" letter-spacing="0.5">MOBIUS</text>
</svg>
