<svg width="139" height="40" viewBox="0 0 139 40" fill="none" xmlns="http://www.w3.org/2000/svg">
<path d="M49.83 32V7.7H57.54C59 7.7 60.19 7.98 61.11 8.54C62.03 9.08 62.71 9.87 63.15 10.91C63.61 11.95 63.84 13.21 63.84 14.69C63.84 16.43 63.54 17.79 62.94 18.77C62.36 19.75 61.56 20.45 60.54 20.87C59.52 21.27 58.35 21.47 57.03 21.47H54.78V32H49.83ZM54.78 17.99H56.52C57.24 17.99 57.79 17.88 58.17 17.66C58.57 17.42 58.84 17.05 58.98 16.55C59.12 16.05 59.19 15.41 59.19 14.63C59.19 13.89 59.13 13.27 59.01 12.77C58.91 12.27 58.67 11.88 58.29 11.6C57.91 11.32 57.31 11.18 56.49 11.18H54.78V17.99ZM65.7827 32V7.7H72.0827C73.7227 7.7 75.1227 7.89 76.2827 8.27C77.4627 8.63 78.3627 9.28 78.9827 10.22C79.6227 11.16 79.9427 12.46 79.9427 14.12C79.9427 15.12 79.8527 16.01 79.6727 16.79C79.5127 17.55 79.2127 18.22 78.7727 18.8C78.3527 19.36 77.7527 19.81 76.9727 20.15L80.3327 32H75.2627L72.4727 20.99H70.7327V32H65.7827ZM70.7327 18.05H72.1727C72.9727 18.05 73.6027 17.92 74.0627 17.66C74.5227 17.4 74.8427 17.01 75.0227 16.49C75.2227 15.95 75.3227 15.29 75.3227 14.51C75.3227 13.39 75.1127 12.54 74.6927 11.96C74.2927 11.36 73.5327 11.06 72.4127 11.06H70.7327V18.05ZM89.2479 32.33C87.4679 32.33 86.0579 32.01 85.0179 31.37C83.9779 30.73 83.2279 29.82 82.7679 28.64C82.3279 27.44 82.1079 26.01 82.1079 24.35V15.29C82.1079 13.63 82.3279 12.21 82.7679 11.03C83.2279 9.85 83.9779 8.95 85.0179 8.33C86.0579 7.71 87.4679 7.4 89.2479 7.4C91.0479 7.4 92.4679 7.72 93.5079 8.36C94.5679 8.98 95.3179 9.88 95.7579 11.06C96.2179 12.22 96.4479 13.63 96.4479 15.29V24.35C96.4479 26.01 96.2179 27.44 95.7579 28.64C95.3179 29.82 94.5679 30.73 93.5079 31.37C92.4679 32.01 91.0479 32.33 89.2479 32.33ZM89.2479 28.76C89.8879 28.76 90.3579 28.62 90.6579 28.34C90.9579 28.04 91.1579 27.65 91.2579 27.17C91.3579 26.67 91.4079 26.14 91.4079 25.58V14.09C91.4079 13.53 91.3579 13.01 91.2579 12.53C91.1579 12.05 90.9579 11.67 90.6579 11.39C90.3579 11.09 89.8879 10.94 89.2479 10.94C88.6479 10.94 88.1979 11.09 87.8979 11.39C87.5979 11.67 87.3979 12.05 87.2979 12.53C87.1979 13.01 87.1479 13.53 87.1479 14.09V25.58C87.1479 26.14 87.1879 26.67 87.2679 27.17C87.3679 27.65 87.5679 28.04 87.8679 28.34C88.1679 28.62 88.6279 28.76 89.2479 28.76ZM98.048 32V28.94L104.228 11.06H98.348V7.7H109.178V10.4L102.818 28.64H109.208V32H98.048ZM111.239 32V7.7H121.829V11.12H116.189V17.57H120.539V21.02H116.189V28.64H121.889V32H111.239ZM123.793 32V7.7H127.243L132.643 20.36V7.7H136.723V32H133.423L128.023 18.56V32H123.793Z" fill="#FEFEFE"/>
<path d="M20 27.9994C15.5817 27.9994 12 24.4178 12 19.9997C12 15.5816 15.5817 12 20 12C24.4183 12 28 15.5816 28 19.9997C28 24.4178 24.4183 27.9994 20 27.9994Z" fill="#FEFEFE"/>
<path d="M4.50172 22.7316C2.18339 23.1404 0.594293 25.3798 1.48423 27.5592C2.72668 30.6018 4.70885 33.3126 7.2786 35.4309C10.9531 38.4597 15.5878 40.0782 20.3491 39.9952C25.1105 39.9121 29.6859 38.1328 33.2526 34.9775C35.7467 32.7709 37.6331 29.9924 38.7687 26.9084C39.5821 24.6993 37.9157 22.5167 35.5845 22.1891C33.2534 21.8615 31.1603 23.5583 30.0089 25.6115C29.3847 26.7244 28.5745 27.7341 27.6038 28.5929C25.5574 30.4034 22.9322 31.4241 20.2005 31.4719C17.4686 31.5195 14.8094 30.591 12.7011 28.853C11.701 28.0287 10.8561 27.0479 10.1934 25.9574C8.97105 23.9456 6.82005 22.3229 4.50172 22.7316Z" fill="#FEFEFE"/>
<path d="M39.8453 22.4985C39.9475 21.6798 40 20.8456 40 19.9993C40 8.95398 31.0457 0 20 0C8.95431 0 0 8.95398 0 19.9993C0 21.0855 0.0866 22.1515 0.25328 23.1908C1.17192 21.9332 2.60568 21.0355 4.15435 20.7624C5.82993 20.467 7.35277 20.8734 8.64036 21.633C8.56429 21.0994 8.52493 20.5539 8.52493 19.9993C8.52493 13.662 13.6625 8.52462 20 8.52462C26.3375 8.52462 31.4751 13.662 31.4751 19.9993C31.4751 20.4171 31.4527 20.8298 31.4092 21.236C32.6696 20.4317 34.1776 19.9721 35.8628 20.209C37.4196 20.4278 38.8833 21.2744 39.8453 22.4985Z" fill="#C3DF94"/>
</svg>
