<svg width="160" height="32" viewBox="0 0 160 32" fill="none" xmlns="http://www.w3.org/2000/svg">
<path d="M16.0001 22.4011C12.4655 22.4011 9.6001 19.5357 9.6001 16.0011C9.6001 12.4665 12.4655 9.60107 16.0001 9.60107C19.5347 9.60107 22.4001 12.4665 22.4001 16.0011C22.4001 19.5357 19.5347 22.4011 16.0001 22.4011Z" fill="#C3DF94"/>
<path d="M3.60099 18.1873C1.74632 18.5143 0.475044 20.3059 1.18699 22.0495C2.18095 24.4836 3.76669 26.6523 5.82249 28.3471C8.76213 30.7702 12.4699 32.065 16.2789 31.9986C20.088 31.9321 23.7484 30.5087 26.6017 27.9843C28.597 26.219 30.1061 23.9961 31.0146 21.5288C31.6653 19.7615 30.3322 18.0153 28.4672 17.7533C26.6023 17.4912 24.9279 18.8486 24.0067 20.4913C23.5074 21.3816 22.8592 22.1894 22.0827 22.8765C20.4455 24.3249 18.3454 25.1415 16.16 25.1797C13.9745 25.2178 11.8471 24.475 10.1605 23.0846C9.36042 22.425 8.68447 21.6404 8.15436 20.768C7.17645 19.1585 5.45565 17.8602 3.60099 18.1873Z" fill="#F75709"/>
<path d="M31.8763 18.0004C31.958 17.3454 32 16.6781 32 16.001C32 7.16442 24.8366 0.000976562 16 0.000976562C7.16345 0.000976562 0 7.16442 0 16.001C0 16.87 0.06928 17.7228 0.202624 18.5543C0.937536 17.5482 2.08454 16.83 3.32348 16.6115C4.66395 16.3752 5.88222 16.7003 6.91229 17.308C6.85144 16.8811 6.81995 16.4447 6.81995 16.001C6.81995 10.931 10.93 6.82092 16 6.82092C21.07 6.82092 25.1801 10.931 25.1801 16.001C25.1801 16.3353 25.1621 16.6654 25.1274 16.9904C26.1357 16.3469 27.3421 15.9792 28.6902 16.1688C29.9357 16.3438 31.1067 17.0211 31.8763 18.0004Z" fill="#C3DF94"/>
<text x="42" y="24" font-family="Arial, Helvetica, sans-serif" font-size="22" font-weight="800" fill="white" letter-spacing="0.5">MOBIUS</text>
</svg>
