<svg width="1600" height="502" viewBox="0 0 1600 502" fill="none" xmlns="http://www.w3.org/2000/svg">
<path d="M1720.82 239.222C1720.5 238.931 1685.19 205.935 1613.63 168.99C1547.54 134.919 1436.26 90.2722 1280.83 71.251C1109.82 50.2985 976.264 88.6167 847.052 125.602C749.726 153.461 649.061 182.282 535.078 184.06C342.577 187.096 187.27 146.471 73.8441 116.83C31.963 105.846 -4.05005 96.3679 -34.158 91.3046C-139.356 73.2445 -253.477 93.1625 -254.476 93.3956L-254.909 91.9914C-253.745 91.7655 -139.46 71.8547 -33.7682 89.9365C-3.66629 95.1381 32.5173 104.486 74.3984 115.469C187.66 145.103 342.802 185.721 535.139 182.677C648.957 180.892 749.458 152.064 846.619 124.198C975.996 87.2197 1109.72 48.9088 1281.22 69.7447C1436.98 88.7804 1548.59 133.58 1614.84 167.797C1686.56 204.887 1721.87 237.883 1722.18 238.174L1720.82 239.222Z" fill="white" fill-opacity="0.04"/>
<path d="M1723.66 268.298C1717.47 263.039 1568.3 138.879 1280.48 105.451C1234.22 100.232 1187.95 99.1674 1143.14 102.185C1045.59 108.979 955.423 131.474 868.083 153.4C762.08 179.908 652.573 207.37 532.856 204.602C493.993 203.725 453.916 200.44 410.317 194.784C295.595 179.629 193.894 153.273 112.24 132.092C56.825 117.744 8.90517 105.387 -31.0499 99.3371C-129.624 84.3386 -239.486 101.119 -251.191 104.899L-251.794 103.626C-240.089 99.846 -129.734 83.087 -30.8306 98.1001C9.12439 104.15 57.0442 116.507 112.618 131.001C194.271 152.182 295.973 178.538 410.537 193.547C454.129 199.341 494.047 202.481 532.911 203.358C652.299 206.112 756.968 179.96 867.644 152.134C954.984 130.208 1045.32 107.72 1143.03 100.933C1188.01 97.7849 1234.28 98.849 1280.7 104.213C1569.17 137.809 1718.66 262.122 1724.85 267.519L1723.66 268.298Z" fill="white" fill-opacity="0.04"/>
<path d="M1726.51 297.373C1725.08 296.064 1565.44 170.197 1280.13 139.649C1233.86 134.707 1187.73 134.203 1142.72 138.181C1057.82 145.67 975.438 163.658 895.714 181.071C782.868 205.755 666.195 231.24 543.955 225.867C539.513 225.672 535.071 225.477 530.635 225.144C493.154 222.804 453.821 217.612 410.009 209.314C320.422 192.356 237.811 170.44 164.974 151.171C90.1819 131.399 25.6571 114.296 -28.258 107.078C-129.209 93.6373 -233.336 111.224 -248.222 116.111L-248.825 114.837C-233.946 110.089 -129.312 92.2475 -28.0388 105.841C26.0408 113.066 90.5657 130.17 165.523 149.948C238.359 169.218 320.811 190.988 410.398 207.946C454.046 216.237 493.386 221.29 530.702 223.623C657.61 231.555 778.444 205.145 895.288 179.529C975.011 162.116 1057.57 143.997 1142.46 136.508C1187.47 132.53 1233.77 133.041 1280.2 137.99C1566.17 168.567 1726.12 294.863 1727.55 296.034L1726.51 297.373Z" fill="white" fill-opacity="0.04"/>
<path d="M1729.18 326.58C1723.62 321.765 1678.51 290.554 1599.56 256.471C1530.16 226.548 1418.45 187.839 1279.6 174.118C1232.83 169.43 1186.67 169.618 1142.28 174.316C1072.22 181.903 1001.07 195.537 932.247 208.719C800.914 233.975 665.26 260.011 528.237 245.955C490.823 242.094 453.214 235.177 409.681 224.26C350.659 209.476 294.653 193.578 240.438 178.174C137.865 149.148 49.1297 124.054 -25.4909 115.372C-119.306 104.6 -220.533 119.96 -244.948 127.89L-245.552 126.617C-220.131 118.315 -120.72 103.014 -25.1071 114.143C49.678 122.832 138.413 147.925 240.986 176.952C295.207 192.217 351.213 208.115 410.071 222.892C453.439 233.802 491.048 240.719 528.297 244.572C664.992 258.614 800.646 232.578 931.809 207.453C1000.63 194.271 1071.79 180.499 1142.01 172.919C1186.57 168.09 1232.89 168.048 1279.83 172.604C1418.85 186.333 1530.89 225.056 1600.45 255.125C1679.55 289.353 1724.81 320.848 1730.38 325.525L1729.18 326.58Z" fill="white" fill-opacity="0.04"/>
<path d="M1732.02 355.656C1723.76 348.644 1673.69 317.631 1594.99 285.637C1524.7 257.06 1412.74 220.418 1279.25 208.318C1231.8 204.016 1185.62 204.618 1141.85 210.313C1089.47 217.014 1036.98 226.066 981.504 235.679C831.513 261.639 676.379 288.343 526.016 266.497C488.833 261.123 450.822 252.111 409.532 238.937C390.19 232.685 370.843 226.571 351.831 220.333C214.322 176.057 84.4613 134.057 -22.2229 123.551C-114.624 114.364 -210.727 129.395 -241.662 139.394L-242.265 138.121C-204.969 125.908 -107.671 113.7 -21.9976 122.175C84.845 132.828 214.877 174.697 352.544 219.117C371.562 225.217 390.903 231.469 410.244 237.722C451.37 250.888 489.382 259.9 526.4 265.267C676.44 286.96 831.409 260.25 981.23 234.42C1036.87 224.815 1089.36 215.763 1141.74 209.061C1185.51 203.366 1231.86 202.772 1279.47 207.081C1413.12 219.188 1525.25 255.837 1595.69 284.56C1674.72 316.707 1724.78 347.858 1733.21 354.877L1732.02 355.656Z" fill="white" fill-opacity="0.04"/>
<path d="M1734.86 384.732C1724.05 375.668 1669.03 344.853 1590.24 314.794C1519.07 287.702 1407.18 253.003 1278.9 242.516C1230.45 238.586 1184.24 239.741 1141.6 246.178C1111.89 250.69 1081.84 255.603 1049.97 260.712C882.773 287.994 693.334 318.87 523.958 287.046C486.026 279.976 448.599 268.912 409.387 253.475C264.686 196.555 112.613 142.359 -19.2731 131.437C-102.053 124.613 -194.055 136.36 -238.535 150.751L-239.138 149.478C-194.488 134.956 -102.15 123.085 -19.0478 130.062C113.168 140.998 265.399 195.34 410.264 252.267C449.312 267.697 486.745 278.623 524.348 285.678C693.395 317.487 882.67 286.605 1049.7 259.315C1081.58 254.068 1111.63 249.155 1141.33 244.781C1184.3 238.359 1230.68 237.072 1279.14 241.003C1407.58 251.496 1519.63 286.203 1590.96 313.441C1669.92 343.507 1725.26 374.475 1736.07 383.676L1734.86 384.732Z" fill="white" fill-opacity="0.04"/>
<path d="M1737.71 413.807C1726.75 404.46 1670.87 374.439 1585.66 343.959C1513.61 318.214 1401.95 285.741 1278.72 276.723C1229.26 273.164 1183.02 275.01 1141.33 282.182C1014.6 304.039 838.7 334.401 673.191 327.127C621.037 324.834 570.035 318.853 521.902 307.595C483.555 298.706 445.732 285.408 409.401 268.159C246.309 190.899 103.158 147.484 -16.3345 139.6C-101.801 133.905 -187.929 147.019 -235.419 162.385L-236.023 161.112C-188.362 145.614 -101.905 132.515 -16.2738 138.218C103.547 146.116 246.863 189.538 409.943 267.074C446.11 284.317 483.775 297.469 522.121 306.358C723.154 353.01 974.464 309.616 1140.9 280.778C1182.76 273.475 1229.16 271.774 1278.78 275.34C1402.18 284.365 1514.15 316.991 1586.21 342.737C1671.58 373.223 1727.78 403.398 1738.74 412.883L1737.71 413.807Z" fill="white" fill-opacity="0.04"/>
<path d="M1740.38 443.014C1727.67 432.205 1667.98 402.57 1580.74 373.387C1507.96 349.133 1396.39 318.603 1278.04 311.046C1227.4 307.851 1181.14 310.251 1140.58 318.164C1035.32 338.887 930.236 351.999 836.752 356.202C713.039 361.846 606.142 352.438 519.345 328.261C479.773 317.241 442.528 302.029 408.915 282.959C308.233 225.896 153.063 155.911 -13.3912 147.626C-87.2434 143.964 -171.093 153.992 -232.299 173.881L-232.902 172.608C-171.526 152.588 -87.5116 142.567 -13.3304 146.243C153.452 154.543 308.787 224.536 409.951 281.897C443.564 300.966 480.48 316.164 520.057 327.046C606.696 351.077 713.264 360.471 836.977 354.827C930.462 350.624 1035.38 337.505 1140.64 316.782C1181.38 308.737 1227.8 306.345 1278.6 309.547C1397.11 317.111 1508.85 347.648 1581.8 371.909C1670.17 401.42 1728.73 430.59 1741.92 441.835L1740.38 443.014Z" fill="white" fill-opacity="0.04"/>
<path d="M1743.22 472.091C1710.33 444.187 1482.59 356.191 1277.84 345.391C1225.87 342.691 1179.59 345.644 1140.47 354.314C1047.58 374.888 939.74 387.048 836.81 388.619C713.426 390.537 602.927 376.815 517.275 349.087C476.32 335.79 439.824 318.533 408.758 297.774C280.975 212.232 134.825 162.036 -3.37311 155.962C-5.67642 155.861 -8.14426 155.752 -10.4476 155.651C-85.0125 153.205 -162.623 163.784 -229.178 185.377L-229.781 184.104C-163.055 162.38 -85.2808 151.808 -10.5513 154.261C130.182 158.923 279.287 209.387 409.635 296.566C440.543 317.179 476.874 334.429 517.671 347.581C698.56 406.229 960.598 392.536 1139.88 352.764C1179.16 344.101 1225.62 341.018 1277.75 343.863C1482.82 354.816 1711.2 442.979 1744.26 471.028L1743.22 472.091Z" fill="white" fill-opacity="0.04"/>
<path d="M1746.07 501.166C1723.02 481.592 1618.62 441.68 1499.71 413.183C1413.74 392.643 1252.71 362.294 1140.05 390.172C1035.72 416.061 890.864 426.456 762.018 417.607C688.72 412.584 622.271 401.768 564.302 385.507C499.656 367.428 447.335 342.688 408.449 312.306C323.835 245.975 223.684 199.325 118.808 177.677C63.1074 166.087 6.26782 161.649 -49.8945 164.306C-109.366 167.233 -168.525 178.07 -226.056 196.873L-226.66 195.6C-169.128 176.796 -109.634 165.836 -50.0044 163.055C6.4931 160.274 63.3266 164.85 119.192 176.447C224.226 198.24 324.706 244.905 409.643 311.388C448.206 341.619 500.533 366.22 564.851 384.284C622.655 400.538 688.94 411.347 762.073 416.362C890.754 425.204 1035.29 414.657 1139.44 388.899C1252.6 360.904 1413.96 391.268 1500.09 411.953C1619.17 440.458 1723.89 480.66 1747.1 500.242L1746.07 501.166Z" fill="white" fill-opacity="0.04"/>
</svg>
