<svg width="1600" height="730" viewBox="0 0 1600 730" fill="none" xmlns="http://www.w3.org/2000/svg">
<mask id="mask0_2269_789" style="mask-type:alpha" maskUnits="userSpaceOnUse" x="0" y="0" width="1600" height="731">
<rect y="0.000976562" width="1600" height="730" fill="#063231" fill-opacity="0.98"/>
</mask>
<g mask="url(#mask0_2269_789)">
<path d="M1720.82 448.222C1720.5 447.931 1685.19 414.935 1613.63 377.99C1547.54 343.919 1436.26 299.272 1280.83 280.251C1109.82 259.299 976.264 297.617 847.052 334.602C749.726 362.461 649.061 391.282 535.078 393.06C342.577 396.096 187.27 355.471 73.8441 325.83C31.963 314.846 -4.05004 305.368 -34.158 300.305C-139.356 282.244 -253.477 302.163 -254.476 302.396L-254.909 300.991C-253.745 300.766 -139.46 280.855 -33.7682 298.937C-3.66629 304.138 32.5173 313.486 74.3985 324.469C187.66 354.103 342.802 394.721 535.139 391.677C648.957 389.892 749.458 361.064 846.619 333.198C975.996 296.22 1109.72 257.909 1281.22 278.745C1436.98 297.78 1548.59 342.58 1614.84 376.797C1686.56 413.887 1721.87 446.883 1722.18 447.174L1720.82 448.222Z" fill="white" fill-opacity="0.04"/>
<path d="M1723.66 477.298C1717.47 472.039 1568.3 347.879 1280.48 314.451C1234.22 309.232 1187.95 308.167 1143.14 311.185C1045.59 317.979 955.423 340.474 868.084 362.4C762.08 388.908 652.573 416.37 532.856 413.602C493.993 412.725 453.916 409.44 410.317 403.784C295.595 388.629 193.894 362.273 112.24 341.092C56.825 326.744 8.90517 314.387 -31.0499 308.337C-129.624 293.339 -239.486 310.119 -251.191 313.899L-251.794 312.626C-240.089 308.846 -129.734 292.087 -30.8306 307.1C9.12437 313.15 57.0442 325.507 112.618 340.001C194.271 361.182 295.973 387.538 410.537 402.547C454.129 408.341 494.047 411.481 532.911 412.358C652.299 415.112 756.968 388.96 867.645 361.134C954.984 339.208 1045.32 316.72 1143.03 309.933C1188.01 306.785 1234.28 307.849 1280.7 313.213C1569.17 346.809 1718.66 471.122 1724.85 476.519L1723.66 477.298Z" fill="white" fill-opacity="0.04"/>
<path d="M1726.51 506.373C1725.08 505.064 1565.44 379.197 1280.13 348.649C1233.86 343.707 1187.73 343.203 1142.72 347.181C1057.82 354.67 975.438 372.658 895.714 390.071C782.868 414.755 666.195 440.24 543.955 434.867C539.513 434.672 535.071 434.477 530.635 434.144C493.154 431.804 453.821 426.612 410.009 418.314C320.422 401.356 237.811 379.44 164.974 360.171C90.1819 340.399 25.6571 323.296 -28.258 316.078C-129.209 302.637 -233.336 320.224 -248.222 325.111L-248.825 323.837C-233.946 319.089 -129.312 301.248 -28.0388 314.841C26.0408 322.066 90.5657 339.17 165.523 358.948C238.359 378.218 320.811 399.988 410.398 416.946C454.046 425.237 493.386 430.29 530.702 432.623C657.61 440.555 778.444 414.145 895.288 388.529C975.011 371.116 1057.57 352.997 1142.46 345.508C1187.47 341.53 1233.77 342.041 1280.2 346.99C1566.17 377.567 1726.12 503.863 1727.55 505.034L1726.51 506.373Z" fill="white" fill-opacity="0.04"/>
<path d="M1729.18 535.58C1723.62 530.765 1678.51 499.554 1599.56 465.471C1530.16 435.548 1418.45 396.839 1279.6 383.118C1232.83 378.43 1186.67 378.618 1142.28 383.316C1072.22 390.903 1001.07 404.537 932.247 417.719C800.914 442.975 665.26 469.011 528.237 454.955C490.823 451.094 453.214 444.177 409.681 433.26C350.659 418.476 294.653 402.578 240.438 387.174C137.865 358.148 49.1297 333.054 -25.4909 324.372C-119.306 313.6 -220.533 328.96 -244.948 336.89L-245.552 335.617C-220.131 327.315 -120.72 312.014 -25.1071 323.143C49.678 331.832 138.413 356.925 240.986 385.952C295.207 401.217 351.213 417.115 410.071 431.892C453.439 442.802 491.048 449.719 528.297 453.572C664.992 467.614 800.646 441.578 931.809 416.453C1000.63 403.271 1071.79 389.499 1142.01 381.919C1186.57 377.09 1232.89 377.048 1279.83 381.604C1418.85 395.333 1530.89 434.056 1600.45 464.125C1679.55 498.353 1724.81 529.848 1730.38 534.525L1729.18 535.58Z" fill="white" fill-opacity="0.04"/>
<path d="M1732.02 564.656C1723.76 557.644 1673.69 526.631 1594.99 494.637C1524.7 466.06 1412.74 429.418 1279.25 417.318C1231.8 413.016 1185.62 413.618 1141.85 419.313C1089.47 426.014 1036.98 435.066 981.504 444.679C831.513 470.639 676.379 497.343 526.016 475.497C488.833 470.123 450.822 461.111 409.532 447.937C390.19 441.685 370.843 435.571 351.831 429.333C214.322 385.057 84.4613 343.057 -22.2228 332.551C-114.624 323.364 -210.727 338.395 -241.662 348.394L-242.265 347.121C-204.969 334.908 -107.671 322.7 -21.9976 331.175C84.845 341.828 214.877 383.697 352.544 428.117C371.562 434.217 390.903 440.469 410.244 446.722C451.37 459.888 489.382 468.9 526.4 474.267C676.44 495.96 831.409 469.25 981.23 443.42C1036.87 433.815 1089.36 424.763 1141.74 418.061C1185.51 412.366 1231.86 411.772 1279.47 416.081C1413.12 428.188 1525.25 464.837 1595.69 493.56C1674.72 525.707 1724.78 556.858 1733.21 563.877L1732.02 564.656Z" fill="white" fill-opacity="0.04"/>
<path d="M1734.87 593.732C1724.05 584.668 1669.03 553.853 1590.24 523.794C1519.07 496.702 1407.18 462.003 1278.9 451.516C1230.45 447.586 1184.24 448.741 1141.6 455.178C1111.89 459.69 1081.84 464.603 1049.97 469.712C882.773 496.994 693.334 527.87 523.958 496.046C486.026 488.976 448.599 477.912 409.387 462.475C264.686 405.555 112.613 351.359 -19.2731 340.437C-102.052 333.613 -194.055 345.36 -238.535 359.751L-239.138 358.478C-194.488 343.956 -102.15 332.085 -19.0478 339.062C113.168 349.998 265.399 404.34 410.264 461.267C449.312 476.697 486.745 487.623 524.348 494.678C693.395 526.487 882.67 495.605 1049.7 468.315C1081.58 463.068 1111.63 458.155 1141.33 453.781C1184.3 447.359 1230.68 446.072 1279.14 450.003C1407.58 460.496 1519.63 495.203 1590.96 522.441C1669.92 552.507 1725.26 583.475 1736.07 592.676L1734.87 593.732Z" fill="white" fill-opacity="0.04"/>
<path d="M1737.71 622.807C1726.75 613.46 1670.87 583.439 1585.66 552.959C1513.61 527.214 1401.95 494.741 1278.72 485.723C1229.26 482.164 1183.02 484.01 1141.33 491.182C1014.6 513.039 838.7 543.401 673.191 536.127C621.037 533.834 570.035 527.853 521.902 516.595C483.555 507.706 445.732 494.408 409.401 477.159C246.309 399.899 103.158 356.484 -16.3345 348.6C-101.801 342.905 -187.929 356.019 -235.419 371.385L-236.023 370.112C-188.362 354.614 -101.905 341.515 -16.2738 347.218C103.547 355.116 246.863 398.538 409.943 476.074C446.11 493.317 483.775 506.469 522.121 515.358C723.154 562.01 974.463 518.616 1140.9 489.778C1182.76 482.475 1229.16 480.774 1278.78 484.34C1402.18 493.365 1514.15 525.991 1586.21 551.737C1671.58 582.223 1727.78 612.398 1738.74 621.883L1737.71 622.807Z" fill="white" fill-opacity="0.04"/>
<path d="M1740.38 652.014C1727.67 641.205 1667.98 611.57 1580.74 582.387C1507.96 558.133 1396.39 527.603 1278.04 520.046C1227.4 516.851 1181.14 519.251 1140.58 527.164C1035.32 547.887 930.236 560.999 836.752 565.202C713.039 570.846 606.142 561.438 519.345 537.261C479.773 526.241 442.528 511.029 408.915 491.959C308.233 434.896 153.063 364.911 -13.3912 356.626C-87.2434 352.964 -171.093 362.992 -232.299 382.881L-232.902 381.608C-171.526 361.588 -87.5116 351.567 -13.3304 355.243C153.452 363.543 308.787 433.536 409.951 490.897C443.564 509.966 480.48 525.164 520.057 536.046C606.696 560.077 713.264 569.471 836.978 563.827C930.462 559.624 1035.38 546.505 1140.64 525.782C1181.38 517.737 1227.8 515.345 1278.6 518.547C1397.11 526.111 1508.85 556.648 1581.8 580.909C1670.17 610.42 1728.73 639.59 1741.92 650.835L1740.38 652.014Z" fill="white" fill-opacity="0.04"/>
<path d="M1743.22 681.091C1710.33 653.187 1482.59 565.191 1277.84 554.391C1225.87 551.691 1179.59 554.644 1140.47 563.314C1047.58 583.888 939.74 596.048 836.81 597.619C713.426 599.537 602.927 585.815 517.275 558.087C476.32 544.79 439.824 527.533 408.758 506.774C280.975 421.232 134.825 371.036 -3.37311 364.962C-5.67642 364.861 -8.14426 364.752 -10.4476 364.651C-85.0125 362.205 -162.623 372.784 -229.178 394.377L-229.781 393.104C-163.055 371.38 -85.2808 360.808 -10.5513 363.261C130.182 367.923 279.287 418.387 409.635 505.566C440.543 526.179 476.874 543.429 517.671 556.581C698.56 615.229 960.598 601.536 1139.88 561.764C1179.16 553.101 1225.62 550.018 1277.75 552.863C1482.82 563.816 1711.2 651.979 1744.26 680.028L1743.22 681.091Z" fill="white" fill-opacity="0.04"/>
<path d="M1746.07 710.166C1723.02 690.592 1618.62 650.68 1499.71 622.183C1413.74 601.643 1252.71 571.294 1140.05 599.172C1035.72 625.061 890.864 635.456 762.018 626.607C688.72 621.584 622.271 610.768 564.302 594.507C499.656 576.428 447.335 551.688 408.449 521.306C323.835 454.975 223.684 408.325 118.808 386.677C63.1074 375.087 6.26783 370.649 -49.8945 373.306C-109.366 376.233 -168.525 387.07 -226.056 405.873L-226.66 404.6C-169.128 385.796 -109.634 374.836 -50.0044 372.055C6.49311 369.274 63.3266 373.85 119.192 385.447C224.226 407.24 324.706 453.905 409.643 520.388C448.206 550.619 500.533 575.22 564.851 593.284C622.655 609.538 688.94 620.347 762.073 625.362C890.754 634.204 1035.29 623.657 1139.44 597.899C1252.6 569.904 1413.96 600.268 1500.09 620.953C1619.17 649.458 1723.89 689.66 1747.1 709.242L1746.07 710.166Z" fill="white" fill-opacity="0.04"/>
</g>
</svg>
