<svg width="658" height="277" viewBox="0 0 658 277" fill="none" xmlns="http://www.w3.org/2000/svg">
<path d="M399.333 165.894C399.66 200.308 392.156 226.621 376.822 244.833C361.489 263.046 340.497 272.272 313.848 272.512C287.059 272.771 265.765 263.952 249.965 246.052C234.164 228.153 226.094 202 225.754 167.593L225.175 107.08C224.841 72.7999 232.345 46.487 247.685 28.1413C263.026 9.79549 284.087 0.509371 310.87 0.28288C337.525 0.0230821 358.76 8.90619 374.573 26.9322C390.387 44.9582 398.454 71.1079 398.773 105.381L399.333 165.894ZM354.522 99.0262C354.302 77.3564 350.527 61.3555 343.196 51.0235C335.866 40.6915 325.204 35.5888 311.209 35.7154C297.262 35.8486 286.736 41.1545 279.632 51.633C272.529 62.1116 269.06 78.1824 269.227 99.8456L269.926 173.379C270.133 195.162 273.955 211.252 281.392 221.651C288.829 232.05 299.514 237.182 313.448 237.049C327.383 236.916 337.875 231.61 344.926 221.131C351.976 210.653 355.398 194.462 355.191 172.559L354.522 99.0262Z" fill="#063231"/>
<g opacity="0.4">
<path d="M399.337 165.894C399.664 200.308 392.16 226.621 376.826 244.833C361.493 263.046 340.501 272.272 313.852 272.512C287.063 272.771 265.769 263.952 249.968 246.052C234.168 228.153 226.098 202 225.758 167.593L225.179 107.08C224.845 72.7999 232.349 46.487 247.689 28.1413C263.03 9.79549 284.091 0.509371 310.873 0.28288C337.529 0.0230821 358.764 8.90619 374.577 26.9322C390.391 44.9582 398.458 71.1079 398.777 105.381L399.337 165.894ZM354.526 99.0262C354.306 77.3564 350.531 61.3555 343.2 51.0235C335.87 40.6915 325.208 35.5888 311.213 35.7154C297.266 35.8486 286.74 41.1545 279.636 51.633C272.533 62.1116 269.064 78.1824 269.231 99.8456L269.93 173.379C270.137 195.162 273.959 211.252 281.396 221.651C288.832 232.05 299.518 237.182 313.452 237.049C327.387 236.916 337.879 231.61 344.929 221.131C351.98 210.653 355.402 194.462 355.195 172.559L354.526 99.0262Z" fill="#063231"/>
</g>
<path d="M424.788 165.656C425.121 200.063 417.617 226.376 402.277 244.595C386.936 262.814 365.945 272.04 339.303 272.274C312.514 272.533 291.219 263.71 275.419 245.804C259.619 227.898 251.559 201.738 251.239 167.325L250.659 106.812C250.326 72.532 257.829 46.2191 273.17 27.8734C288.51 9.52761 309.572 0.238143 336.354 0.00499065C363.01 -0.241485 384.244 8.64163 400.058 26.6543C415.871 44.667 423.908 70.83 424.168 105.143L424.788 165.656ZM379.976 98.7883C379.763 77.1251 375.971 61.1375 368.601 50.8255C361.23 40.5135 350.568 35.4108 336.614 35.5174C322.666 35.6573 312.14 40.9632 305.037 51.4351C297.933 61.9069 294.481 77.9811 294.681 99.6576L295.391 173.181C295.604 194.97 299.426 211.064 306.856 221.463C314.286 231.862 324.972 236.994 338.913 236.861C352.847 236.721 363.339 231.415 370.39 220.943C377.44 210.472 380.859 194.278 380.646 172.361L379.976 98.7883Z" fill="#063231"/>
<path d="M250.785 110.409C250.835 110.539 244.928 112.887 237.591 115.645C230.254 118.403 224.246 120.481 224.246 120.391C224.246 120.301 230.104 117.913 237.441 115.155C244.778 112.397 250.735 110.269 250.785 110.409Z" fill="#063231"/>
<path d="M250.465 134.851C251.628 134.457 251.688 134.618 250.553 135.086C248.295 136.018 243.991 137.693 239.031 139.555C231.684 142.313 225.707 144.431 225.657 144.301C225.607 144.171 231.514 141.823 238.851 139.065C243.791 137.208 248.147 135.637 250.465 134.851Z" fill="#063231"/>
<path d="M253.725 158.233C253.775 158.363 247.867 160.711 240.52 163.469C233.173 166.227 227.246 168.345 227.146 168.215C227.046 168.085 233.003 165.737 240.34 162.979C247.677 160.222 253.675 158.093 253.725 158.233Z" fill="#063231"/>
<path d="M254.255 182.401C254.903 182.192 254.95 182.32 254.323 182.588C252.396 183.413 247.633 185.277 242.033 187.379C234.686 190.137 228.699 192.255 228.649 192.126C228.599 191.996 234.516 189.647 241.853 186.89C247.461 184.782 252.262 183.042 254.255 182.401Z" fill="#063231"/>
<path d="M-nan -nanL256.667 206.055C256.379 206.24 256.07 206.39 255.747 206.504C255.148 206.764 254.268 207.124 253.189 207.554C251.009 208.423 248.001 209.552 244.662 210.841C241.323 212.13 238.285 213.199 236.076 213.979C234.976 214.368 234.076 214.678 233.457 214.878C233.219 214.978 233.132 214.772 233.377 214.688C233.976 214.428 234.846 214.068 235.936 213.689C238.105 212.819 241.123 211.69 244.462 210.401C247.801 209.112 250.839 208.033 253.049 207.264C254.148 206.874 255.048 206.564 255.668 206.364C255.983 206.211 256.32 206.106 256.667 206.055L-nan -nanZ" fill="#063231"/>
<path d="M-nan -nanL263.492 227.93C262.527 228.449 261.525 228.893 260.493 229.259C258.594 230.018 255.965 231.037 253.056 232.136C250.147 233.236 247.488 234.195 245.569 234.864C245.088 235.06 244.919 234.706 245.409 234.535C247.298 233.765 249.927 232.746 252.846 231.657C255.765 230.568 258.404 229.598 260.333 228.929C261.356 228.507 262.412 228.173 263.492 227.93L-nan -nanZ" fill="#063231"/>
<path d="M-nan -nanL278.119 247.992C277.258 248.471 276.359 248.875 275.43 249.201C273.741 249.881 271.431 250.79 268.813 251.769C266.194 252.749 263.815 253.598 262.135 254.187C261.662 254.379 261.522 254.014 262.005 253.848C263.685 253.168 266.004 252.259 268.623 251.28C271.242 250.3 273.621 249.451 275.3 248.852C276.212 248.482 277.155 248.194 278.119 247.992L-nan -nanZ" fill="#063231"/>
<path d="M-nan -nanL302.416 261.152C301.553 261.624 300.654 262.025 299.727 262.351C298.037 263.041 295.728 263.95 293.109 264.919C290.49 265.889 288.111 266.748 286.432 267.348C285.957 267.54 285.819 267.168 286.302 266.998C287.991 266.318 290.301 265.409 292.919 264.43C295.538 263.451 297.917 262.601 299.597 262.012C300.507 261.636 301.451 261.348 302.416 261.152L-nan -nanZ" fill="#063231"/>
<path d="M375.708 210.121C375.768 210.251 368.181 213.788 358.765 218.025C349.349 222.261 341.662 225.579 341.602 225.449C341.542 225.319 349.129 221.782 358.595 217.545C368.061 213.308 375.648 209.991 375.708 210.121Z" fill="#063231"/>
<path d="M380.683 189.637C380.743 189.767 374.476 192.705 366.689 196.202C358.902 199.699 352.545 202.437 352.485 202.307C352.425 202.178 358.682 199.23 366.479 195.733C374.276 192.235 380.623 189.507 380.683 189.637Z" fill="#063231"/>
<path d="M382.976 166.625C383.036 166.755 376.769 169.693 368.982 173.19C361.195 176.688 354.838 179.426 354.778 179.296C354.718 179.166 360.975 176.218 368.772 172.721C376.569 169.223 382.916 166.446 382.976 166.625Z" fill="#063231"/>
<path d="M385.261 143.603C385.321 143.733 379.064 146.68 371.267 150.178C363.47 153.675 357.123 156.403 357.063 156.273C357.003 156.143 363.27 153.205 371.057 149.708C378.844 146.211 385.181 143.463 385.261 143.603Z" fill="#063231"/>
<path d="M387.558 120.589C387.608 120.719 381.351 123.667 373.564 127.164C365.777 130.661 359.42 133.389 359.36 133.259C359.3 133.129 365.567 130.192 373.354 126.684C381.141 123.177 387.498 120.479 387.558 120.589Z" fill="#063231"/>
<path d="M382.976 100.098C383.036 100.228 376.769 103.176 368.982 106.673C361.195 110.17 354.838 112.898 354.778 112.768C354.718 112.638 360.975 109.691 368.772 106.193C376.569 102.696 382.916 99.9683 382.976 100.098Z" fill="#063231"/>
<path d="M382.976 78.0357C383.036 78.1656 376.769 81.1133 368.982 84.6106C361.195 88.1079 354.838 90.8358 354.778 90.7059C354.718 90.576 360.975 87.6282 368.772 84.131C376.569 80.6337 382.916 77.9058 382.976 78.0357Z" fill="#063231"/>
<path d="M380.683 57.2623C380.743 57.3922 374.476 60.3299 366.689 63.8272C358.902 67.3245 352.545 70.0623 352.485 69.9324C352.425 69.8025 358.682 66.8548 366.479 63.3575C374.276 59.8603 380.623 57.1324 380.683 57.2623Z" fill="#063231"/>
<path d="M-nan -nanL360.942 42.7812C358.197 44.3013 355.371 45.669 352.476 46.8781C351.597 47.3021 351.354 46.772 352.256 46.3984C355.082 45.0342 357.982 43.8267 360.942 42.7812L-nan -nanZ" fill="#063231"/>
<path d="M341.697 37.5452C342.545 37.1351 342.785 37.6413 341.917 38.0048C341.061 38.4178 340.819 37.9097 341.697 37.5452Z" fill="#063231"/>
<path d="M251.915 81.4236C251.965 81.5535 246.058 83.9017 238.721 86.6596C231.384 89.4174 225.386 91.5458 225.336 91.4059C225.286 91.266 231.194 88.9278 238.541 86.17C245.888 83.4121 251.865 81.2937 251.915 81.4236Z" fill="#063231"/>
<path d="M257.141 52.2525C258.51 51.7816 258.574 51.95 257.233 52.4962C254.741 53.5117 250.168 55.2835 244.93 57.2593C236.983 60.2569 230.476 62.5552 230.426 62.4253C230.376 62.2954 236.783 59.7573 244.74 56.7697C249.973 54.8048 254.592 53.1295 257.141 52.2525Z" fill="#063231"/>
<path d="M278.497 22.0901C278.547 22.23 270.42 25.3975 260.344 29.1846C250.269 32.9716 242.062 35.9293 242.012 35.7994C241.962 35.6695 250.089 32.482 260.165 28.6949C270.24 24.9079 278.447 21.9602 278.497 22.0901Z" fill="#063231"/>
<path d="M420.478 210.411L420.058 210.271L418.859 209.801C418.329 209.611 417.639 209.461 416.86 209.241C415.926 209.06 414.981 208.943 414.031 208.892C409.762 208.622 403.365 210.171 397.178 214.807C393.828 217.344 390.827 220.31 388.251 223.63C385.383 227.138 382.574 231.105 379.385 235.101C376.14 239.389 372.257 243.153 367.87 246.263C363.067 249.501 357.639 251.7 351.936 252.718C346.233 253.744 340.376 253.55 334.753 252.148C329.563 250.788 324.521 248.917 319.699 246.563C315.051 244.414 310.703 242.226 306.565 240.417C302.716 238.718 298.721 237.37 294.63 236.39C291.256 235.594 287.8 235.198 284.334 235.211C281.718 235.231 279.114 235.584 276.587 236.261C274.998 236.727 273.452 237.332 271.969 238.069L270.83 238.669C270.827 238.67 270.825 238.671 270.823 238.673C270.773 238.703 270.75 238.659 270.8 238.629L271.919 237.979C273.389 237.195 274.933 236.555 276.527 236.071C279.066 235.355 281.686 234.968 284.324 234.922C287.818 234.877 291.304 235.249 294.71 236.031C298.821 236.998 302.835 238.336 306.705 240.028C310.883 241.826 315.231 244.024 319.869 246.143C324.673 248.473 329.695 250.32 334.863 251.659C340.424 253.047 346.216 253.238 351.856 252.218C357.489 251.211 362.85 249.043 367.6 245.853C371.954 242.779 375.811 239.055 379.035 234.812C382.224 230.815 385.033 226.878 387.941 223.361C390.539 220.031 393.564 217.058 396.938 214.517C403.215 209.881 409.703 208.362 414.021 208.702C414.982 208.765 415.937 208.895 416.88 209.092C417.679 209.341 418.369 209.501 418.879 209.711L420.068 210.231L420.478 210.411Z" fill="#063231"/>
<path d="M-nan -nanL426.784 143.763C426.784 143.813 426.074 143.903 424.835 144.312C423.111 144.943 421.485 145.814 420.006 146.9C418.107 148.229 416.008 150.088 413.599 152.006C410.941 154.079 408.061 155.852 405.013 157.292C399.48 159.943 393.484 161.491 387.36 161.849C386.19 161.949 385.121 161.919 384.191 161.939C383.262 161.959 382.462 161.879 381.812 161.829L380.303 161.679C380.171 161.677 380.183 161.571 380.313 161.589L381.822 161.639H384.191C385.121 161.589 386.19 161.639 387.33 161.479C393.389 161.012 399.309 159.43 404.793 156.813C407.805 155.382 410.659 153.64 413.309 151.617C415.738 149.738 417.847 147.89 419.807 146.621C421.334 145.54 423.02 144.704 424.805 144.142C425.29 144.004 425.784 143.897 426.284 143.823C426.446 143.777 426.615 143.757 426.784 143.763L-nan -nanZ" fill="#063231"/>
<path d="M-nan -nanL296.217 166.917C296.035 166.908 295.854 166.882 295.677 166.837C295.317 166.757 294.787 166.677 294.118 166.487C292.24 165.932 290.44 165.143 288.76 164.139C286.295 162.626 283.955 160.919 281.763 159.033C279.254 156.954 276.575 154.586 273.506 152.468C270.641 150.444 267.424 148.97 264.02 148.121C259.342 146.971 254.453 146.991 249.786 148.181C249.119 148.352 248.606 148.502 248.259 148.603C247.938 148.696 247.906 148.594 248.226 148.501C248.566 148.371 249.066 148.171 249.736 147.981C251.608 147.434 253.536 147.099 255.483 146.982C258.385 146.768 261.302 147.007 264.13 147.692C267.599 148.533 270.879 150.021 273.796 152.078C276.905 154.227 279.584 156.615 282.072 158.703C284.232 160.595 286.531 162.322 288.95 163.869C290.595 164.884 292.348 165.711 294.178 166.337C294.867 166.494 295.548 166.688 296.217 166.917L-nan -nanZ" fill="#063231"/>
<path d="M-nan -nanL296.386 72.4601C295.848 72.7099 295.289 72.9138 294.717 73.0696C294.061 73.3006 293.394 73.4974 292.718 73.6592C291.928 73.859 291.038 74.1288 290.029 74.3087C289.019 74.4885 287.929 74.7383 286.73 74.8882C285.53 75.0381 284.261 75.178 282.912 75.2979C279.981 75.4838 277.04 75.447 274.115 75.188C271.192 74.8957 268.295 74.3847 265.449 73.6592C264.149 73.2895 262.9 72.9497 261.77 72.54C260.641 72.1304 259.581 71.7507 258.642 71.361C257.702 70.9713 256.862 70.5616 256.123 70.2218C255.383 69.8821 254.773 69.5524 254.273 69.2726C254.029 69.1506 254.123 68.9622 254.363 69.0927C254.873 69.3425 255.503 69.6523 256.242 69.962C256.982 70.2718 257.822 70.6715 258.781 71.0112C259.741 71.351 260.781 71.7806 261.91 72.1304C263.04 72.4801 264.269 72.8398 265.569 73.1895C271.222 74.6148 277.061 75.1641 282.882 74.8183C284.221 74.7084 285.49 74.6384 286.68 74.4586C287.869 74.2787 288.959 74.1288 289.959 73.9489C290.958 73.7691 291.848 73.5493 292.638 73.3794C293.427 73.2095 294.107 73.0297 294.637 72.8798C295.209 72.6982 295.794 72.558 296.386 72.4601L-nan -nanZ" fill="#063231"/>
<path d="M420.748 71.9597C421.015 72.0984 420.946 72.1658 420.693 72.0029C420.692 72.0018 420.69 72.0007 420.688 71.9997L419.529 71.3302C418.927 70.9641 418.307 70.6305 417.669 70.331C416.848 69.8905 416.004 69.4936 415.141 69.1419L413.641 68.5124C413.111 68.3025 412.552 68.1427 411.972 67.9428C410.832 67.5231 409.563 67.2334 408.233 66.8836C402.422 65.5618 396.394 65.5107 390.561 66.7338C389.292 67.0023 388.037 67.3358 386.802 67.733C386.222 67.9228 385.653 68.0727 385.123 68.2726L383.613 68.8721C382.745 69.2117 381.894 69.5952 381.065 70.0212C380.421 70.3139 379.796 70.6476 379.195 71.0204L378.016 71.6699C377.766 71.7994 377.719 71.7158 377.966 71.58L379.085 70.8406C379.677 70.4466 380.295 70.0928 380.935 69.7814C381.755 69.3208 382.603 68.9104 383.474 68.5523L384.983 67.9128C385.513 67.703 386.092 67.5431 386.672 67.3433C387.915 66.9242 389.18 66.574 390.461 66.2941C396.358 65.0012 402.47 65.0558 408.343 66.454C409.683 66.8137 410.962 67.1234 412.112 67.5631C412.692 67.7729 413.261 67.9428 413.781 68.1726L415.29 68.8321C416.151 69.2125 416.992 69.6361 417.809 70.1011C418.439 70.4276 419.047 70.7948 419.629 71.2003L420.748 71.9597Z" fill="#063231"/>
<path d="M359.216 4.66067C359.351 4.59332 359.409 4.70611 359.274 4.77168L357.195 5.92079C355.345 6.92002 352.666 8.30894 349.308 9.98764C342.611 13.2951 333.204 17.8216 322.069 20.6394C316.834 21.9548 311.471 22.6986 306.076 22.8577C301.672 22.9863 297.268 22.6074 292.951 21.7285C290.041 21.1445 287.196 20.2778 284.454 19.1405C283.455 18.7608 282.765 18.3611 282.265 18.1413C282.131 18.0835 282.175 17.9848 282.305 18.0514C282.825 18.2412 283.545 18.6109 284.534 18.9607C287.285 20.0197 290.125 20.829 293.021 21.3788C297.318 22.1994 301.694 22.5345 306.066 22.378C311.418 22.1922 316.736 21.4386 321.929 20.1298C332.994 17.3319 342.411 12.8854 349.138 9.65789L357.135 5.73095L359.194 4.67176C359.201 4.66805 359.208 4.66436 359.216 4.66067Z" fill="#063231"/>
<path d="M159.772 168.445C159.53 173.963 163.808 178.632 169.326 178.873L182.759 179.459C188.277 179.7 192.555 184.369 192.314 189.887L191.639 205.308C191.397 210.826 186.729 215.103 181.212 214.862L167.776 214.275C162.258 214.034 157.59 218.312 157.349 223.829L155.653 262.673C155.412 268.191 150.744 272.468 145.226 272.228L121.225 271.181C115.708 270.94 111.43 266.272 111.671 260.754L113.367 221.911C113.608 216.393 109.33 211.725 103.813 211.484L9.93543 207.383C4.5745 207.149 0.353978 202.726 0.371871 197.36L0.4194 183.106C0.426177 181.074 1.05196 179.092 2.21339 177.424L118.234 10.8374C120.193 8.02483 123.456 6.41142 126.88 6.56215L156.794 7.87888C162.31 8.1217 166.586 12.7899 166.344 18.3065L159.772 168.445ZM55.3463 158.377C50.6524 164.826 55.0267 173.905 62.9952 174.253L105.362 176.102C110.879 176.343 115.548 172.065 115.788 166.547L120.008 69.7531C120.022 69.4474 119.838 69.1674 119.552 69.058C119.215 68.9289 118.835 69.0727 118.668 69.3925L115.269 75.8906C115.065 76.2801 114.833 76.654 114.574 77.0094L55.3463 158.377Z" fill="#063231"/>
<g opacity="0.4">
<path d="M159.772 168.445C159.53 173.963 163.808 178.632 169.326 178.873L182.759 179.459C188.277 179.7 192.555 184.369 192.314 189.887L191.639 205.308C191.397 210.826 186.729 215.103 181.212 214.862L167.776 214.275C162.258 214.034 157.59 218.312 157.349 223.829L155.653 262.673C155.412 268.191 150.744 272.468 145.226 272.228L121.225 271.181C115.708 270.94 111.43 266.272 111.671 260.754L113.367 221.911C113.608 216.393 109.33 211.725 103.813 211.484L9.93543 207.383C4.5745 207.149 0.353978 202.726 0.371871 197.36L0.4194 183.106C0.426177 181.074 1.05196 179.092 2.21339 177.424L118.234 10.8374C120.193 8.02483 123.456 6.41142 126.88 6.56215L156.794 7.87888C162.31 8.1217 166.586 12.7899 166.344 18.3065L159.772 168.445ZM55.3463 158.377C50.6524 164.826 55.0267 173.905 62.9952 174.253L105.362 176.102C110.879 176.343 115.548 172.065 115.788 166.547L120.008 69.7531C120.022 69.4474 119.838 69.1674 119.552 69.058C119.215 68.9289 118.835 69.0727 118.668 69.3925L115.269 75.8906C115.065 76.2801 114.833 76.654 114.574 77.0094L55.3463 158.377Z" fill="#063231"/>
</g>
<path d="M187.7 169.666C187.459 175.184 191.736 179.852 197.254 180.093L210.688 180.679C216.206 180.92 220.484 185.589 220.242 191.107L219.568 206.529C219.326 212.046 214.658 216.323 209.141 216.082L195.704 215.495C190.187 215.255 185.519 219.532 185.278 225.05L183.581 263.894C183.34 269.411 178.673 273.688 173.155 273.448L149.154 272.401C143.636 272.16 139.359 267.492 139.6 261.974L141.296 223.128C141.537 217.612 137.261 212.944 131.745 212.701L37.811 208.567C32.4514 208.331 28.2329 203.908 28.2508 198.543L28.2983 184.288C28.3051 182.255 28.9314 180.272 30.0938 178.604L146.133 12.0853C148.092 9.27409 151.354 7.66161 154.777 7.81226L184.704 9.12926C190.22 9.37201 194.495 14.0396 194.254 19.5558L187.7 169.666ZM83.2851 159.595C78.588 166.043 82.9622 175.125 90.9323 175.473L133.341 177.322C138.859 177.563 143.527 173.285 143.767 167.768L147.987 70.9733C148.001 70.6676 147.817 70.3877 147.531 70.2782C147.194 70.1492 146.814 70.293 146.647 70.6127L143.248 77.1096C143.044 77.4999 142.811 77.8746 142.552 78.2307L83.2851 159.595Z" fill="#063231"/>
<path d="M27.7586 186.741C28.0075 186.628 28.1056 186.847 27.8542 186.954C27.849 186.957 27.8438 186.959 27.8386 186.961C27.1289 187.321 26.0893 187.82 24.8398 188.42C22.2709 189.629 18.6823 191.238 14.674 192.936C10.6656 194.635 7.01712 196.074 4.35821 197.083C3.02876 197.583 1.9392 197.973 1.18951 198.232C0.947382 198.333 0.872537 198.13 1.11954 198.042L4.21827 196.733L14.4341 192.427L24.6499 188.06L27.7586 186.741Z" fill="#063231"/>
<path d="M-nan -nanL45.1926 156.453C44.7081 156.75 44.2038 157.014 43.6832 157.243C42.6836 157.722 41.2642 158.402 39.4849 159.241C35.9164 160.86 30.9684 163.028 25.4907 165.356C20.0129 167.684 14.945 169.673 11.3365 171.092C9.51721 171.811 8.03781 172.371 6.99824 172.74C6.74078 172.851 6.66618 172.649 6.92827 172.551L11.1965 170.752L25.3007 164.827L39.375 158.831L43.6432 157.023C44.1408 156.785 44.6595 156.594 45.1926 156.453L-nan -nanZ" fill="#063231"/>
<path d="M-nan -nanL65.0539 129.746C64.5509 130.057 64.0226 130.324 63.4745 130.545C62.4749 131.025 60.9456 131.705 59.0863 132.544C55.3578 134.173 50.19 136.341 44.4523 138.669C38.7147 140.997 33.4568 143.026 29.6684 144.455C27.7692 145.164 26.2198 145.724 25.1502 146.093C24.8908 146.2 24.8166 145.999 25.0803 145.904L29.5384 144.105L44.2524 138.18L58.9364 132.184L63.3946 130.376C63.9306 130.123 64.4853 129.913 65.0539 129.746L-nan -nanZ" fill="#063231"/>
<path d="M-nan -nanL144.612 160.559C144.271 160.794 143.906 160.992 143.522 161.148C142.813 161.498 141.773 161.977 140.474 162.557C137.895 163.726 134.296 165.275 130.288 166.904C126.279 168.532 122.611 169.901 119.952 170.901C118.613 171.38 117.533 171.76 116.783 172.01C116.54 172.103 116.457 171.902 116.703 171.82L119.822 170.561L130.098 166.444L140.334 162.247L143.442 160.978C143.816 160.796 144.208 160.655 144.612 160.559L-nan -nanZ" fill="#063231"/>
<path d="M140.262 215.877C140.481 215.767 140.563 215.944 140.339 216.04C140.333 216.042 140.328 216.044 140.322 216.047C139.633 216.386 138.623 216.876 137.374 217.455C134.875 218.625 131.376 220.173 127.508 221.792C123.639 223.411 120.061 224.79 117.512 225.789C116.212 226.269 115.163 226.648 114.433 226.888C114.19 226.989 114.106 226.787 114.353 226.698L117.352 225.439L127.348 221.332L137.264 217.136L140.262 215.877Z" fill="#063231"/>
<path d="M-nan -nanL140.911 234.703C140.601 234.933 140.265 235.128 139.911 235.283C139.222 235.632 138.212 236.112 136.913 236.702C134.414 237.861 130.915 239.409 127.037 241.038C123.158 242.667 119.6 244.036 117.041 245.035C115.751 245.515 114.702 245.894 113.962 246.144C113.72 246.25 113.644 246.045 113.892 245.954L116.891 244.695L126.887 240.589L136.813 236.392L139.811 235.133C140.159 234.945 140.528 234.8 140.911 234.703L-nan -nanZ" fill="#063231"/>
<path d="M-nan -nanL140.45 253.938C140.137 254.167 139.802 254.364 139.45 254.527C138.761 254.877 137.751 255.356 136.452 255.936C133.943 257.105 130.454 258.654 126.576 260.273C122.697 261.891 119.139 263.27 116.58 264.269C115.29 264.749 114.231 265.129 113.501 265.369C113.262 265.467 113.187 265.265 113.431 265.179L116.43 263.93L126.426 259.813L136.352 255.616L139.35 254.357C139.701 254.178 140.069 254.037 140.45 253.938L-nan -nanZ" fill="#063231"/>
<path d="M-nan -nanL145.132 140.234C144.789 140.465 144.424 140.663 144.043 140.824C143.333 141.174 142.293 141.653 141.044 142.233C138.465 143.402 134.866 144.951 130.858 146.579C126.85 148.208 123.181 149.577 120.522 150.576C119.183 151.056 118.103 151.436 117.354 151.675C117.104 151.775 117.019 151.57 117.274 151.486L120.392 150.227L130.668 146.12L140.904 141.923L144.013 140.664C144.37 140.482 144.745 140.338 145.132 140.234L-nan -nanZ" fill="#063231"/>
<path d="M144.481 120.334C144.706 120.224 144.791 120.406 144.561 120.504C143.852 120.843 142.812 121.333 141.513 121.913C138.934 123.082 135.335 124.63 131.327 126.249C127.318 127.868 123.66 129.247 120.991 130.246C119.652 130.726 118.572 131.095 117.822 131.345C117.572 131.444 117.496 131.238 117.752 131.155L120.861 129.896L131.137 125.79L141.373 121.593L144.481 120.334Z" fill="#063231"/>
<path d="M-nan -nanL146.175 99.5859C145.861 99.8054 145.526 99.9928 145.175 100.146C144.505 100.475 143.516 100.935 142.286 101.494C139.817 102.614 136.399 104.102 132.58 105.641C128.762 107.18 125.263 108.509 122.724 109.418C121.455 109.868 120.425 110.228 119.725 110.418C119.483 110.516 119.408 110.312 119.656 110.228L122.654 109.029L132.44 105.122L142.196 101.125L145.195 99.9257C145.508 99.7759 145.836 99.662 146.175 99.5859L-nan -nanZ" fill="#063231"/>
<path d="M-nan -nanL148.467 80.5938C146.871 81.4574 145.198 82.17 143.469 82.7221C142.64 83.0748 142.422 82.5082 143.279 82.2325C144.952 81.5205 146.689 80.9717 148.467 80.5938L-nan -nanZ" fill="#063231"/>
<path d="M-nan -nanL84.8759 102.086C84.3719 102.388 83.8475 102.655 83.3065 102.885C82.307 103.365 80.7776 104.034 78.9084 104.884C75.1899 106.512 70.022 108.681 64.2744 111.009C58.5267 113.337 53.2789 115.375 49.5004 116.794C47.6012 117.504 46.0518 118.063 44.9823 118.433C44.7228 118.534 44.6491 118.334 44.9123 118.243L49.3705 116.455L64.0844 110.489L78.7684 104.494L83.2166 102.685C83.7558 102.449 84.3101 102.249 84.8759 102.086L-nan -nanZ" fill="#063231"/>
<path d="M-nan -nanL104.704 74.418C104.201 74.7285 103.673 74.9959 103.125 75.2174C102.125 75.697 100.596 76.3765 98.7365 77.2158C95.018 78.8345 89.8401 81.0129 84.1025 83.3311C78.3648 85.6493 73.107 87.6977 69.3285 89.1166C67.4193 89.836 65.88 90.3956 64.8004 90.7653C64.538 90.8722 64.4635 90.6704 64.7304 90.5754L69.1886 88.7768L83.9026 82.8514L98.5965 76.8561L103.045 75.0375C103.582 74.7904 104.136 74.5833 104.704 74.418L-nan -nanZ" fill="#063231"/>
<path d="M-nan -nanL123.028 46.7578C122.521 47.0612 121.994 47.3283 121.449 47.5572C120.449 48.0368 118.92 48.7063 117.061 49.5556C113.342 51.1844 108.164 53.3527 102.427 55.6809C96.6891 58.0091 91.4312 60.0475 87.6528 61.4664C85.7535 62.1758 84.2042 62.7354 83.1346 63.1051C82.8752 63.2062 82.8014 63.0061 83.0647 62.9153L87.5228 61.1267L102.237 55.2013L116.921 49.2059L121.369 47.3973C121.902 47.1358 122.457 46.9218 123.028 46.7578L-nan -nanZ" fill="#063231"/>
<path d="M-nan -nanL142.101 20.1602C141.592 20.4608 141.065 20.7278 140.521 20.9595C139.522 21.4392 137.992 22.1086 136.133 22.958C132.405 24.5867 127.237 26.755 121.499 29.0832C115.762 31.4114 110.504 33.4498 106.715 34.8687C104.816 35.5782 103.277 36.1378 102.197 36.5075C101.937 36.6105 101.863 36.4101 102.127 36.3176L106.585 34.529L121.289 28.5536L135.973 22.5583L140.431 20.7497C140.973 20.5123 141.531 20.3153 142.101 20.1602L-nan -nanZ" fill="#063231"/>
<path d="M192.018 61.353C192.148 61.2296 192.254 61.339 192.121 61.4591C191.556 62.0798 190.952 62.6639 190.312 63.2078C187.98 65.2426 185.364 66.9258 182.545 68.2039C178.341 70.0923 173.799 71.1119 169.191 71.2016C166.467 71.2518 163.748 70.9461 161.104 70.2923C158.281 69.5695 155.543 68.5479 152.937 67.2446C147.559 64.6267 142.781 61.5391 138.113 59.3907C134.022 57.3856 129.569 56.2235 125.019 55.9734C121.953 55.8163 118.894 56.3882 116.092 57.6421C115.337 57.996 114.612 58.4104 113.923 58.8811C113.817 58.9598 113.755 58.8769 113.863 58.8012C114.535 58.2914 115.251 57.8432 116.002 57.4622C118.806 56.1235 121.894 55.4857 124.999 55.6037C129.613 55.8224 134.134 56.982 138.283 59.011C143.001 61.1594 147.799 64.237 153.127 66.835C155.708 68.1121 158.415 69.1168 161.204 69.8326C163.802 70.48 166.473 70.789 169.151 70.7519C176.824 70.6465 184.231 67.921 190.142 63.0279C190.992 62.3484 191.591 61.7489 192.011 61.3592C192.013 61.3571 192.016 61.3551 192.018 61.353Z" fill="#063231"/>
<path d="M-nan -nanL178.785 11.3945C178.382 11.6742 177.957 11.9215 177.515 12.134C176.686 12.5836 175.446 13.1332 173.887 13.8326C172.059 14.6011 170.19 15.2682 168.289 15.8311C163.631 17.2211 158.813 18.0069 153.955 18.1693C151.955 18.2421 149.953 18.2021 147.957 18.0494C146.268 17.9195 144.959 17.7596 143.959 17.5897C143.691 17.5597 143.722 17.3477 143.989 17.3899C144.919 17.4998 146.278 17.5997 147.987 17.6796C149.697 17.7596 151.676 17.7796 153.895 17.6796C156.299 17.5606 158.694 17.3138 161.072 16.9402C163.43 16.5352 165.766 16.0083 168.069 15.3615C170.198 14.7419 172.067 14.1024 173.657 13.4829C175.246 12.8634 176.476 12.3338 177.335 11.9441C177.8 11.7152 178.285 11.5312 178.785 11.3945L-nan -nanZ" fill="#063231"/>
<path d="M-nan -nanL107.813 122.369C107.484 122.064 107.183 121.73 106.914 121.37L104.555 118.552C101.922 115.49 99.1254 112.571 96.1781 109.809C94.5779 108.292 92.8184 106.952 90.9303 105.812C89.3858 104.888 87.6959 104.233 85.9323 103.874C84.4125 103.602 82.8591 103.583 81.3345 103.816C81.1447 103.845 81.1313 103.802 81.3142 103.744C81.6395 103.636 81.9742 103.559 82.3138 103.514C83.5414 103.308 84.7947 103.308 86.0223 103.514C87.8437 103.831 89.5939 104.47 91.1902 105.402C93.1307 106.546 94.932 107.911 96.558 109.469C99.5266 112.238 102.299 115.209 104.855 118.362C105.854 119.571 106.594 120.581 107.094 121.28C107.372 121.617 107.613 121.982 107.813 122.369L-nan -nanZ" fill="#063231"/>
<path d="M187.107 152.763C187.19 152.724 187.24 152.805 187.164 152.857C186.904 153.037 186.514 153.327 185.975 153.627C184.474 154.506 182.898 155.252 181.267 155.855C175.861 157.896 169.988 158.364 164.327 157.206C158.666 156.047 153.449 153.31 149.28 149.31C148.016 148.123 146.865 146.822 145.841 145.423C145.471 144.933 145.231 144.524 145.051 144.254C144.889 144.01 144.949 143.975 145.138 144.199C145.441 144.555 145.728 144.924 146.001 145.303C147.081 146.636 148.261 147.885 149.53 149.04C153.702 152.895 158.85 155.535 164.416 156.675C169.982 157.815 175.754 157.41 181.107 155.505C182.728 154.944 184.302 154.255 185.815 153.447C186.236 153.201 186.667 152.973 187.107 152.763Z" fill="#063231"/>
<path d="M216.41 215.35C216.444 215.405 216.422 215.417 216.39 215.36C216.21 215.04 215.93 214.58 215.59 213.981C214.587 212.204 213.444 210.51 212.172 208.915L210.812 207.316L210.082 206.447L209.233 205.617L207.434 203.839L205.334 202.1C201.982 199.437 198.283 197.242 194.339 195.575C189.578 193.562 184.506 192.383 179.345 192.088C173.404 191.769 167.464 192.723 161.922 194.886C156.075 197.184 150.427 200.651 144.449 204.009C141.422 205.757 138.287 207.312 135.063 208.665C131.722 210.071 128.199 210.996 124.598 211.413C120.994 211.775 117.356 211.556 113.822 210.763C110.401 210.011 107.073 208.889 103.896 207.416C97.9444 204.537 92.2811 201.098 86.983 197.144C81.8551 193.497 76.9871 189.969 72.179 187.152C67.7586 184.446 62.9667 182.399 57.9549 181.076C53.8019 180.054 49.5015 179.77 45.2501 180.237C42.0403 180.57 38.9158 181.474 36.0239 182.905C34.2147 183.831 32.5344 184.99 31.0259 186.352L29.8664 187.431C29.8212 187.477 29.7875 187.444 29.8309 187.397C29.8327 187.395 29.8346 187.393 29.8364 187.391L30.926 186.222C32.4252 184.821 34.1063 183.628 35.9239 182.675C38.8299 181.197 41.9793 180.256 45.2201 179.897C49.5069 179.394 53.849 179.655 58.0448 180.667C63.0968 181.982 67.9316 184.022 72.3989 186.722C77.2669 189.54 82.125 193.057 87.2628 196.714C92.5412 200.638 98.1809 204.051 104.106 206.906C107.245 208.378 110.537 209.501 113.922 210.254C117.407 211.033 120.994 211.248 124.548 210.893C128.093 210.482 131.562 209.574 134.853 208.195C138.057 206.848 141.174 205.306 144.189 203.579C150.187 200.232 155.825 196.754 161.722 194.446C163.177 193.875 164.666 193.394 166.18 193.007C166.93 192.817 167.67 192.587 168.41 192.438L170.649 192.068C173.526 191.639 176.44 191.505 179.345 191.668C184.568 191.979 189.698 193.19 194.509 195.245C198.456 196.953 202.154 199.185 205.504 201.88C206.224 202.49 206.924 203.089 207.603 203.649L209.393 205.457L210.232 206.297C210.482 206.597 210.732 206.886 210.962 207.176C211.442 207.746 211.892 208.285 212.312 208.805C213.574 210.417 214.694 212.135 215.66 213.941C215.987 214.554 216.237 215.023 216.41 215.35Z" fill="#063231"/>
<path d="M185.96 257.702C186.033 257.67 186.037 257.686 185.957 257.696C185.955 257.696 185.953 257.696 185.95 257.697L184.471 257.976C183.694 258.133 182.91 258.25 182.122 258.326C181.202 258.416 180.123 258.566 178.983 258.596L177.144 258.676C176.514 258.676 175.844 258.676 175.145 258.676C173.775 258.676 172.306 258.546 170.766 258.426C167.43 258.061 164.13 257.42 160.9 256.507C157.686 255.54 154.557 254.31 151.544 252.83C150.185 252.101 148.875 251.431 147.716 250.682C147.136 250.322 146.556 249.992 146.027 249.683L144.527 248.634C143.528 247.984 142.758 247.295 142.028 246.715C141.398 246.232 140.794 245.715 140.219 245.166C139.789 244.747 139.419 244.407 139.129 244.167C139.032 244.085 139.105 244.001 139.199 244.087L140.359 245.086C140.849 245.506 141.458 246.016 142.208 246.555C142.958 247.095 143.757 247.774 144.737 248.404L146.246 249.403C146.776 249.753 147.356 250.072 147.936 250.402C149.095 251.132 150.405 251.781 151.764 252.491C157.743 255.436 164.191 257.313 170.816 258.036C172.346 258.166 173.815 258.326 175.165 258.336C175.844 258.336 176.504 258.396 177.164 258.336H178.983C180.143 258.336 181.192 258.206 182.112 258.146C183.031 258.086 183.821 257.986 184.461 257.886L185.94 257.708C185.947 257.707 185.953 257.705 185.96 257.702Z" fill="#063231"/>
<path d="M592.441 168.898C592.979 174.393 597.869 178.413 603.364 177.877L616.75 176.571C622.246 176.034 627.137 180.054 627.674 185.55L629.176 200.911C629.714 206.407 625.694 211.299 620.198 211.836L606.815 213.146C601.318 213.684 597.299 218.575 597.836 224.071L601.618 262.764C602.155 268.26 598.136 273.151 592.64 273.689L568.768 276.026C563.269 276.565 558.375 272.541 557.84 267.042L554.079 228.364C553.545 222.866 548.652 218.842 543.154 219.379L449.554 228.524C444.215 229.046 439.415 225.261 438.677 219.947L436.718 205.841C436.439 203.827 436.779 201.777 437.695 199.962L529.122 18.7182C530.665 15.6593 533.666 13.6032 537.076 13.2696L566.879 10.3529C572.375 9.81499 577.267 13.8348 577.805 19.3315L592.441 168.898ZM487.629 173.59C483.885 180.634 489.492 189.012 497.432 188.235L539.67 184.107C545.166 183.57 549.187 178.678 548.649 173.181L539.217 76.7299C539.187 76.4239 538.964 76.1718 538.664 76.1048C538.312 76.0263 537.957 76.2232 537.838 76.5632L535.412 83.4644C535.263 83.8881 535.083 84.3001 534.872 84.6967L487.629 173.59Z" fill="#063231"/>
<g opacity="0.4">
<path d="M592.441 168.898C592.979 174.393 597.869 178.413 603.364 177.877L616.75 176.571C622.246 176.034 627.137 180.054 627.674 185.55L629.176 200.911C629.714 206.407 625.694 211.299 620.198 211.836L606.815 213.146C601.318 213.684 597.299 218.575 597.836 224.071L601.618 262.764C602.155 268.26 598.136 273.151 592.64 273.689L568.768 276.026C563.269 276.565 558.375 272.541 557.84 267.042L554.079 228.364C553.545 222.866 548.652 218.842 543.154 219.379L449.554 228.524C444.215 229.046 439.415 225.261 438.677 219.947L436.718 205.841C436.439 203.827 436.779 201.777 437.695 199.962L529.122 18.7182C530.665 15.6593 533.666 13.6032 537.076 13.2696L566.879 10.3529C572.375 9.81499 577.267 13.8348 577.805 19.3315L592.441 168.898ZM487.629 173.59C483.885 180.634 489.492 189.012 497.432 188.235L539.67 184.107C545.166 183.57 549.187 178.678 548.649 173.181L539.217 76.7299C539.187 76.4239 538.964 76.1718 538.664 76.1048C538.312 76.0263 537.957 76.2232 537.838 76.5632L535.412 83.4644C535.263 83.8881 535.083 84.3001 534.872 84.6967L487.629 173.59Z" fill="#063231"/>
</g>
<path d="M620.281 166.175C620.818 171.672 625.711 175.692 631.208 175.155L644.59 173.845C650.086 173.307 654.977 177.326 655.516 182.822L657.023 198.192C657.562 203.688 653.544 208.581 648.047 209.12L634.652 210.435C629.157 210.974 625.139 215.866 625.677 221.361L629.466 260.061C630.004 265.558 625.983 270.451 620.485 270.988L596.6 273.321C591.104 273.857 586.213 269.837 585.675 264.341L581.893 225.648C581.356 220.153 576.466 216.132 570.97 216.669L477.399 225.797C472.057 226.318 467.257 222.529 466.522 217.212L464.575 203.119C464.297 201.107 464.638 199.059 465.553 197.246L556.981 15.9994C558.524 12.9405 561.526 10.8845 564.935 10.5508L594.737 7.63428C600.234 7.0963 605.126 11.1168 605.664 16.614L620.281 166.175ZM515.476 170.869C511.732 177.911 517.336 186.288 525.274 185.515L567.514 181.404C573.013 180.869 577.036 175.977 576.498 170.478L567.066 74.0323C567.036 73.7252 566.814 73.4716 566.513 73.4025C566.156 73.3205 565.795 73.5196 565.674 73.8648L563.261 80.7556C563.112 81.1794 562.932 81.5912 562.721 81.9877L515.476 170.869Z" fill="#063231"/>
<path d="M-nan -nanL465.409 205.027C465.103 205.311 464.768 205.562 464.409 205.777C463.76 206.236 462.8 206.876 461.611 207.655C459.222 209.214 455.903 211.312 452.174 213.551C448.446 215.789 445.037 217.738 442.538 219.106C441.299 219.786 440.279 220.335 439.54 220.695C439.533 220.699 439.527 220.703 439.52 220.707C439.286 220.844 439.17 220.643 439.41 220.515L442.299 218.787L451.855 213.101L461.351 207.346L464.24 205.607C464.606 205.369 464.998 205.174 465.409 205.027L-nan -nanZ" fill="#063231"/>
<path d="M-nan -nanL477.303 173.109C476.869 173.478 476.408 173.812 475.923 174.109C475.024 174.718 473.694 175.587 472.045 176.647C468.746 178.755 464.148 181.643 459.05 184.64C453.952 187.638 449.254 190.446 445.846 192.364C444.146 193.364 442.757 194.093 441.787 194.603C441.552 194.74 441.447 194.552 441.687 194.423L445.686 192.045L458.81 184.201L471.895 176.297L475.893 173.909C476.342 173.607 476.813 173.34 477.303 173.109L-nan -nanZ" fill="#063231"/>
<path d="M-nan -nanL493.218 143.902C492.762 144.272 492.277 144.606 491.769 144.902C490.769 145.521 489.43 146.4 487.7 147.47C484.242 149.598 479.424 152.466 474.066 155.583C468.708 158.701 463.82 161.449 460.252 163.447C458.472 164.446 457.023 165.196 456.013 165.715C455.772 165.852 455.668 165.663 455.913 165.536L460.072 163.127L473.806 155.194L487.51 147.2L491.659 144.782C492.155 144.449 492.677 144.155 493.218 143.902L-nan -nanZ" fill="#063231"/>
<path d="M575.207 163.764C575.44 163.618 575.56 163.819 575.322 163.956C574.672 164.406 573.703 165.025 572.513 165.785C570.114 167.303 566.775 169.342 563.037 171.52C559.299 173.698 555.86 175.577 553.351 176.896C552.101 177.565 551.082 178.085 550.352 178.435C550.345 178.439 550.337 178.444 550.329 178.448C550.1 178.579 549.989 178.379 550.222 178.255L553.131 176.576L562.717 171.06L572.263 165.475L575.172 163.786C575.184 163.779 575.195 163.771 575.207 163.764Z" fill="#063231"/>
<path d="M-nan -nanL580.841 218.027C580.538 218.31 580.203 218.555 579.841 218.757C579.211 219.196 578.282 219.816 577.122 220.575C574.813 222.074 571.585 224.103 567.966 226.261C564.348 228.419 561.019 230.258 558.59 231.597C557.38 232.256 556.391 232.776 555.701 233.126C555.474 233.262 555.367 233.069 555.601 232.946L558.41 231.277L567.696 225.811L576.932 220.256L579.741 218.587C580.084 218.357 580.453 218.169 580.841 218.027L-nan -nanZ" fill="#063231"/>
<path d="M-nan -nanL583.099 237.141C582.796 237.423 582.461 237.668 582.099 237.87C581.469 238.31 580.54 238.929 579.38 239.689C577.071 241.187 573.842 243.216 570.224 245.364C566.605 247.513 563.277 249.361 560.848 250.71C559.638 251.37 558.649 251.889 557.959 252.239C557.732 252.375 557.625 252.182 557.859 252.059L560.668 250.39L569.954 244.925L579.19 239.369L581.999 237.7C582.342 237.47 582.711 237.282 583.099 237.141L-nan -nanZ" fill="#063231"/>
<path d="M-nan -nanL585.337 256.258C585.034 256.54 584.699 256.785 584.337 256.987C583.708 257.427 582.778 258.046 581.618 258.796C579.309 260.305 576.081 262.333 572.462 264.481C568.844 266.63 565.515 268.478 563.086 269.827C561.877 270.487 560.887 271.006 560.197 271.356C559.975 271.484 559.871 271.296 560.097 271.176L562.906 269.508L572.192 264.042L581.429 258.486L584.237 256.817C584.58 256.587 584.949 256.399 585.337 256.258L-nan -nanZ" fill="#063231"/>
<path d="M-nan -nanL573.978 143.023C573.671 143.303 573.336 143.551 572.978 143.763C572.318 144.203 571.359 144.832 570.159 145.591C567.76 147.1 564.422 149.149 560.683 151.317C556.945 153.485 553.506 155.374 551.007 156.703C549.748 157.362 548.728 157.892 548.008 158.242C548.001 158.246 547.993 158.251 547.985 158.255C547.759 158.384 547.65 158.186 547.878 158.062L550.777 156.383L560.373 150.867L569.919 145.272L572.818 143.593C573.184 143.363 573.572 143.172 573.978 143.023L-nan -nanZ" fill="#063231"/>
<path d="M-nan -nanL571.626 122.828C571.322 123.111 570.987 123.359 570.627 123.568C569.967 124.007 569.007 124.627 567.808 125.386C565.419 126.905 562.08 128.953 558.332 131.122C554.583 133.29 551.165 135.179 548.656 136.507C547.406 137.167 546.387 137.697 545.657 138.046C545.649 138.051 545.64 138.056 545.632 138.061C545.394 138.2 545.282 137.994 545.527 137.866L548.426 136.178L558.022 130.672L567.568 125.076L570.467 123.388C570.833 123.162 571.222 122.975 571.626 122.828L-nan -nanZ" fill="#063231"/>
<path d="M-nan -nanL569.287 102.637C569.002 102.905 568.687 103.14 568.348 103.336C567.718 103.766 566.798 104.335 565.659 105.085C563.39 106.534 560.211 108.482 556.662 110.551C553.114 112.619 549.825 114.418 547.436 115.677L544.587 117.135C544.372 117.259 544.274 117.076 544.495 116.962C544.499 116.96 544.503 116.958 544.507 116.956L547.266 115.347L556.412 110.101L565.499 104.765L568.268 103.166C568.587 102.953 568.929 102.775 569.287 102.637L-nan -nanZ" fill="#063231"/>
<path d="M-nan -nanL568.886 83.5117C567.428 84.5985 565.868 85.5421 564.228 86.3295C563.461 86.7902 563.171 86.2674 563.978 85.8799C565.538 84.9413 567.181 84.1486 568.886 83.5117L-nan -nanZ" fill="#063231"/>
<path d="M-nan -nanL508.954 113.727C508.503 114.099 508.021 114.433 507.515 114.726C506.515 115.346 505.166 116.225 503.436 117.294C499.988 119.422 495.17 122.29 489.812 125.408C484.454 128.525 479.566 131.273 475.998 133.212C474.218 134.211 472.759 134.96 471.75 135.48C471.511 135.613 471.417 135.425 471.66 135.3L475.818 132.892L489.552 124.958L503.247 116.964L507.405 114.546C507.901 114.236 508.419 113.962 508.954 113.727L-nan -nanZ" fill="#063231"/>
<path d="M523.145 84.3311C523.381 84.1821 523.486 84.3709 523.245 84.5109C522.246 85.1305 520.906 86.0098 519.177 87.079C515.718 89.2073 510.9 92.0751 505.553 95.1927C500.205 98.3102 495.297 101.058 491.728 102.997C489.949 103.996 488.5 104.745 487.49 105.265C487.249 105.401 487.144 105.213 487.39 105.085L491.548 102.677L505.283 94.743L518.987 86.7492L523.145 84.3311Z" fill="#063231"/>
<path d="M-nan -nanL538.949 53.582C538.492 53.952 538.007 54.286 537.499 54.5813C536.5 55.2008 535.16 56.0801 533.431 57.1493C529.972 59.2776 525.154 62.1454 519.796 65.263C514.439 68.3805 509.551 71.1284 505.982 73.0669C504.203 74.0661 502.753 74.8156 501.744 75.3351C501.506 75.4683 501.402 75.2813 501.644 75.1553L505.802 72.7471L519.537 64.8133L533.241 56.8195L537.389 54.4014C537.886 54.0872 538.408 53.8133 538.949 53.582L-nan -nanZ" fill="#063231"/>
<path d="M-nan -nanL554.113 24.5547C553.656 24.9246 553.171 25.2587 552.663 25.5539C551.714 26.1734 550.324 27.0528 548.595 28.1219C545.136 30.2503 540.318 33.118 534.961 36.2456C529.603 39.3732 524.715 42.1011 521.146 44.0495C519.367 45.0488 517.918 45.7882 516.908 46.3078C516.656 46.4514 516.549 46.2592 516.808 46.1279L520.966 43.7298L534.701 35.736L548.405 27.7422L552.553 25.3241C553.053 25.0295 553.575 24.7723 554.113 24.5547L-nan -nanZ" fill="#063231"/>
<path d="M-nan -nanL609.901 57.6914C609.763 57.9485 609.602 58.1926 609.421 58.4208C608.948 59.1199 608.431 59.7875 607.872 60.4193C605.849 62.7704 603.492 64.8107 600.874 66.4746C596.985 68.9559 592.632 70.6217 588.08 71.3708C585.392 71.8004 582.66 71.8776 579.953 71.6006C577.056 71.2815 574.201 70.6551 571.437 69.7321C565.739 67.9035 560.581 65.5153 555.653 64.0365C551.32 62.6433 546.752 62.1303 542.218 62.5276C539.161 62.8065 536.212 63.8027 533.612 65.4354C532.908 65.8943 532.24 66.4053 531.613 66.9642C531.509 67.0726 531.432 66.9952 531.543 66.8943C532.136 66.2946 532.781 65.7495 533.472 65.2655C536.069 63.543 539.047 62.4797 542.149 62.1679C546.745 61.6853 551.392 62.1478 555.803 63.5269C560.801 64.9957 565.959 67.3639 571.596 69.1925C574.331 70.0995 577.151 70.7223 580.013 71.051C582.677 71.3233 585.364 71.2528 588.01 70.8412C592.505 70.1265 596.811 68.5195 600.675 66.1149C603.267 64.4886 605.622 62.5114 607.672 60.2394C608.242 59.6293 608.779 58.9889 609.281 58.3209C609.472 58.0966 609.679 57.8863 609.901 57.6914L-nan -nanZ" fill="#063231"/>
<path d="M-nan -nanL589.168 10.7383C588.813 11.0756 588.428 11.3799 588.018 11.6476C587.258 12.2171 586.119 12.9666 584.669 13.8359C582.969 14.8543 581.214 15.7783 579.412 16.6037C577.198 17.6036 574.929 18.4744 572.614 19.2117C570.291 19.9261 567.928 20.5034 565.537 20.9404C563.585 21.2822 561.617 21.5223 559.64 21.6598C557.95 21.7697 556.581 21.7897 555.641 21.7597C555.363 21.7714 555.353 21.5547 555.631 21.5599C556.571 21.5599 557.93 21.44 559.63 21.2901C561.329 21.1402 563.288 20.8704 565.467 20.4707C567.828 20.0068 570.163 19.4231 572.464 18.7221C574.761 17.9905 577.016 17.1366 579.222 16.1641C581.221 15.2548 583.03 14.3555 584.489 13.5161C585.949 12.6768 587.118 11.9873 587.908 11.5177C588.304 11.2218 588.726 10.961 589.168 10.7383L-nan -nanZ" fill="#063231"/>
<path d="M-nan -nanL534.519 130.584C534.161 130.321 533.826 130.027 533.52 129.705L530.781 127.257C527.746 124.593 524.569 122.094 521.265 119.773C519.466 118.481 517.532 117.389 515.497 116.515C513.839 115.819 512.074 115.41 510.279 115.306C508.737 115.242 507.195 115.429 505.714 115.861C505.509 115.921 505.488 115.878 505.681 115.786C505.984 115.642 506.299 115.521 506.621 115.426C507.811 115.059 509.054 114.893 510.299 114.936C512.145 114.994 513.966 115.38 515.677 116.076C517.756 116.934 519.728 118.03 521.554 119.343C524.886 121.669 528.052 124.223 531.031 126.987C532.17 128.046 533.03 128.986 533.659 129.565C533.984 129.871 534.272 130.213 534.519 130.584L-nan -nanZ" fill="#063231"/>
<path d="M-nan -nanL617.708 149.269C617.708 149.269 617.608 149.398 617.368 149.618C617.128 149.838 616.788 150.168 616.299 150.538C614.947 151.625 613.498 152.585 611.97 153.405C606.906 156.171 601.164 157.451 595.404 157.097C589.644 156.744 584.101 154.771 579.414 151.407C577.999 150.409 576.681 149.281 575.475 148.04C575.035 147.61 574.736 147.24 574.476 147.04C574.409 146.974 574.474 146.917 574.543 146.981C574.779 147.201 575.124 147.524 575.565 147.94C576.813 149.111 578.15 150.183 579.564 151.147C584.232 154.384 589.698 156.281 595.368 156.634C601.038 156.986 606.697 155.78 611.73 153.146C613.257 152.36 614.721 151.458 616.109 150.448C616.619 150.025 617.153 149.631 617.708 149.269L-nan -nanZ" fill="#063231"/>
<path d="M655.451 207.804C655.317 207.682 655.19 207.552 655.071 207.415C654.831 207.125 654.511 206.705 654.071 206.166C652.825 204.549 651.455 203.032 649.973 201.629L648.394 200.23L647.554 199.481L646.555 198.771L644.555 197.273L642.226 195.844C638.542 193.679 634.581 192.025 630.451 190.927C625.447 189.592 620.25 189.125 615.087 189.548C609.162 190.072 603.416 191.854 598.234 194.774C592.767 197.872 587.669 202.099 582.241 206.266C579.487 208.417 576.603 210.395 573.604 212.191C570.488 214.053 567.122 215.462 563.609 216.378C560.089 217.236 556.455 217.529 552.843 217.247C549.345 216.959 545.889 216.289 542.537 215.249C536.24 213.243 530.152 210.637 524.355 207.465C518.757 204.567 513.469 201.769 508.291 199.661C503.513 197.611 498.462 196.265 493.297 195.664C489.04 195.251 484.743 195.589 480.603 196.663C477.472 197.443 474.507 198.776 471.846 200.6C470.179 201.777 468.667 203.16 467.348 204.717L466.398 205.996C466.359 206.047 466.313 206.02 466.348 205.966L467.268 204.657C468.555 203.055 470.055 201.636 471.726 200.44C474.389 198.561 477.374 197.186 480.533 196.383C484.705 195.279 489.041 194.924 493.337 195.334C498.526 195.931 503.6 197.277 508.401 199.331C513.619 201.429 518.927 204.227 524.525 207.105C530.3 210.249 536.362 212.839 542.627 214.839C545.946 215.848 549.365 216.495 552.823 216.767C556.381 217.049 559.962 216.759 563.429 215.908C566.882 215.002 570.19 213.612 573.255 211.781C576.237 210.001 579.105 208.036 581.841 205.896C587.279 201.749 592.407 197.512 597.924 194.395C599.287 193.626 600.696 192.942 602.143 192.346C602.852 192.047 603.542 191.727 604.262 191.467L606.421 190.788C609.211 189.958 612.078 189.413 614.978 189.159C620.192 188.739 625.44 189.219 630.491 190.578C634.646 191.696 638.628 193.377 642.326 195.574L644.655 197.023L646.655 198.562L647.654 199.271L648.494 200.04L650.063 201.459C651.519 202.887 652.856 204.431 654.061 206.076C654.273 206.372 654.463 206.635 654.626 206.859C654.873 207.198 655.151 207.512 655.451 207.804Z" fill="#063231"/>
<path d="M630.982 253.47C631.07 253.441 631.096 253.522 631.008 253.552C630.979 253.562 630.951 253.571 630.922 253.58L629.502 254.07C628.754 254.331 627.994 254.554 627.223 254.739C626.314 254.959 625.304 255.259 624.145 255.449L622.345 255.789C621.716 255.899 621.056 255.958 620.346 256.048C618.987 256.248 617.517 256.318 615.968 256.418C612.628 256.519 609.285 256.349 605.972 255.908C602.653 255.405 599.383 254.623 596.196 253.57C594.737 253.051 593.347 252.571 592.098 251.992C591.468 251.712 590.848 251.472 590.278 251.192L588.649 250.363C587.59 249.853 586.7 249.284 585.9 248.814C585.212 248.423 584.544 247.996 583.901 247.535L582.672 246.666C582.558 246.596 582.622 246.499 582.732 246.576L584.011 247.365C584.551 247.715 585.231 248.135 586.01 248.564C586.79 248.994 587.709 249.563 588.769 250.033L590.408 250.822C590.978 251.102 591.598 251.332 592.228 251.602C593.477 252.151 594.857 252.601 596.306 253.121C599.502 254.136 602.774 254.891 606.092 255.379C609.388 255.824 612.713 256.008 616.038 255.928C617.567 255.839 619.037 255.799 620.376 255.609C621.046 255.529 621.706 255.479 622.375 255.379L624.175 255.079C625.324 254.919 626.334 254.639 627.243 254.45C628.153 254.26 628.913 254.05 629.532 253.86L630.982 253.47Z" fill="#063231"/>
<path d="M509.983 107.401C510.039 107.859 509.844 107.884 509.745 107.433C509.643 106.966 509.488 106.303 509.233 105.502C508.922 104.553 508.528 103.633 508.053 102.754C506.874 100.609 505.236 98.7492 503.255 97.3085C502.448 96.7212 501.588 96.2094 500.686 95.7796C499.918 95.4155 499.272 95.1659 498.819 94.9998C498.39 94.8421 498.431 94.6833 498.867 94.8204C499.551 94.9663 500.22 95.1736 500.866 95.4399C501.815 95.8377 502.72 96.3333 503.565 96.9188C505.648 98.3567 507.344 100.285 508.503 102.534C508.975 103.448 509.347 104.409 509.613 105.402C509.796 106.056 509.92 106.725 509.983 107.401Z" fill="#C3DF94"/>
<path d="M-nan -nanL386.488 206.105C386.738 205.93 387.026 205.817 387.328 205.775C388.138 205.598 388.98 205.626 389.777 205.855C390.951 206.189 392.047 206.749 393.006 207.504C393.582 207.933 394.121 208.411 394.615 208.933C395.113 209.546 395.536 210.217 395.874 210.931C397.059 213.314 398.045 215.791 398.823 218.335C399.123 219.335 399.323 220.104 399.453 220.664C399.608 221.136 399.42 221.185 399.259 220.715C399.075 220.179 398.814 219.403 398.473 218.445C397.592 215.96 396.567 213.528 395.405 211.161C395.09 210.498 394.693 209.877 394.225 209.312C393.759 208.811 393.254 208.346 392.716 207.924C391.822 207.194 390.807 206.625 389.717 206.245C388.668 205.935 387.56 205.887 386.488 206.105L-nan -nanZ" fill="#C3DF94"/>
<path d="M-nan -nanL394.258 233.206C394.028 232.858 393.837 232.486 393.689 232.097L392.279 229.039C391.09 226.451 389.35 222.914 387.691 218.887C387.023 216.972 386.141 215.139 385.062 213.421C384.13 212.074 382.848 211.006 381.354 210.334C380.36 209.853 379.253 209.656 378.155 209.764C377.375 209.864 376.975 210.074 376.955 210.024C376.935 209.974 377.045 209.954 377.235 209.854C377.513 209.715 377.809 209.617 378.115 209.564C379.262 209.368 380.442 209.518 381.504 209.994C383.09 210.656 384.458 211.75 385.452 213.151C386.575 214.882 387.488 216.741 388.171 218.687C389.82 222.684 391.509 226.261 392.619 228.889C393.169 230.198 393.619 231.277 393.879 232.017C394.048 232.398 394.176 232.797 394.258 233.206L-nan -nanZ" fill="#C3DF94"/>
<path d="M365.741 217.416C365.506 217.528 365.414 217.321 365.652 217.216L368.531 215.827C369.151 215.537 369.8 215.217 370.53 214.898C371.351 214.57 372.238 214.44 373.119 214.518C374.099 214.597 375.04 214.942 375.838 215.517C376.642 216.175 377.32 216.974 377.837 217.875C378.387 218.775 378.837 219.704 379.236 220.563C379.636 221.422 380.106 222.252 380.546 223.031C381.415 224.58 382.235 225.969 382.835 227.188C383.328 228.14 383.756 229.125 384.114 230.136C384.368 230.705 384.191 230.771 383.935 230.202C383.628 229.52 383.167 228.541 382.515 227.358C381.865 226.179 381.026 224.82 380.126 223.271C379.676 222.492 379.226 221.662 378.787 220.793C378.347 219.924 377.927 219.014 377.397 218.145C376.913 217.302 376.287 216.548 375.548 215.917C374.835 215.372 373.99 215.027 373.099 214.918C372.29 214.83 371.472 214.933 370.71 215.217C369.99 215.507 369.3 215.827 368.711 216.077L365.762 217.406C365.755 217.409 365.748 217.412 365.741 217.416Z" fill="#C3DF94"/>
<path d="M-nan -nanL366.048 212.48C365.781 212.702 365.485 212.887 365.168 213.03C364.588 213.36 363.739 213.819 362.679 214.379C360.57 215.498 357.631 217.017 354.373 218.656C351.114 220.294 348.155 221.753 345.996 222.792L343.437 223.992C343.433 223.994 343.428 223.996 343.423 223.999C343.192 224.12 343.091 223.913 343.327 223.802C343.907 223.482 344.757 223.022 345.816 222.463C347.925 221.344 350.864 219.835 354.123 218.186C357.381 216.537 360.34 215.088 362.489 214.059C363.569 213.54 364.488 213.13 365.058 212.85C365.368 212.68 365.702 212.555 366.048 212.48L-nan -nanZ" fill="#C3DF94"/>
<path d="M288.15 169.722C288.545 169.773 288.458 170.142 288.061 170.11C286.282 169.967 284.493 169.971 282.712 170.122C280.95 170.387 279.214 170.794 277.52 171.339C277.149 171.459 276.989 171.134 277.355 171.001C279.043 170.276 280.827 169.798 282.652 169.582C284.482 169.366 286.334 169.414 288.15 169.722Z" fill="#C3DF94"/>
</svg>
