<svg width="44" height="44" viewBox="0 0 44 44" fill="none" xmlns="http://www.w3.org/2000/svg">
<path d="M14.1797 23.375C14.1797 21.9511 13.0254 20.7969 11.6016 20.7969C10.1777 20.7969 9.02344 21.9511 9.02344 23.375C9.02344 24.7988 10.1777 25.9531 11.6016 25.9531C13.0254 25.9531 14.1797 27.1074 14.1797 28.5312C14.1797 29.9551 13.0254 31.1094 11.6016 31.1094C10.1777 31.1094 9.02344 29.9551 9.02344 28.5312" stroke="#063231" stroke-width="2.57812" stroke-miterlimit="10"/>
<path d="M11.6016 18.2188V20.7969" stroke="#063231" stroke-width="2.57812" stroke-miterlimit="10"/>
<path d="M11.6016 31.1094V33.6875" stroke="#063231" stroke-width="2.57812" stroke-miterlimit="10"/>
<path d="M19.3359 6.61719C9.36899 6.61719 1.28906 14.6969 1.28906 24.6641C1.28906 34.631 9.36899 42.7109 19.3359 42.7109C29.3029 42.7109 37.3828 34.631 37.3828 24.6641H42.7109C42.7109 11.8493 32.1507 1.28907 19.3359 1.28907V24.6641L28.902 39.9698" stroke="#063231" stroke-width="2.57812" stroke-miterlimit="10"/>
<path d="M19.3359 24.6641H37.3828" stroke="#063231" stroke-width="2.57812" stroke-miterlimit="10"/>
</svg>
