<svg width="24" height="24" viewBox="0 0 24 24" fill="none" xmlns="http://www.w3.org/2000/svg">
<g clip-path="url(#clip0_2305_1204)">
<path d="M11.8275 11.5609C13.4158 11.5609 14.7909 10.9913 15.9148 9.86735C17.0383 8.74364 17.6082 7.3687 17.6082 5.78026C17.6082 4.19237 17.0385 2.81726 15.9146 1.69317C14.7907 0.56964 13.4156 0 11.8275 0C10.2391 0 8.86414 0.56964 7.74042 1.69336C6.6167 2.81707 6.04688 4.19219 6.04688 5.78026C6.04688 7.3687 6.6167 8.74382 7.74042 9.86753C8.8645 10.9911 10.2396 11.5609 11.8275 11.5609ZM8.73505 2.6878C9.59729 1.82556 10.6088 1.40643 11.8275 1.40643C13.0461 1.40643 14.0577 1.82556 14.9202 2.6878C15.7824 3.55023 16.2017 4.56188 16.2017 5.78026C16.2017 6.99901 15.7824 8.01048 14.9202 8.87291C14.0577 9.73533 13.0461 10.1545 11.8275 10.1545C10.6091 10.1545 9.59766 9.73515 8.73505 8.87291C7.87262 8.01067 7.45331 6.99901 7.45331 5.78026C7.45331 4.56188 7.87262 3.55023 8.73505 2.6878Z" fill="white"/>
<path d="M21.9435 18.4556C21.9111 17.988 21.8456 17.4778 21.7491 16.9391C21.6517 16.3964 21.5262 15.8834 21.3761 15.4144C21.2208 14.9297 21.0101 14.4511 20.7491 13.9924C20.4787 13.5164 20.1608 13.1018 19.8041 12.7607C19.4312 12.4038 18.9745 12.1169 18.4464 11.9076C17.9202 11.6994 17.337 11.5939 16.7131 11.5939C16.4681 11.5939 16.2312 11.6945 15.7736 11.9924C15.492 12.176 15.1626 12.3884 14.7949 12.6234C14.4805 12.8237 14.0546 13.0113 13.5286 13.1813C13.0153 13.3473 12.4942 13.4316 11.9797 13.4316C11.4655 13.4316 10.9444 13.3473 10.4308 13.1813C9.90527 13.0115 9.47919 12.8239 9.16534 12.6235C8.80115 12.3908 8.47156 12.1784 8.18573 11.9922C7.72852 11.6943 7.49158 11.5938 7.24658 11.5938C6.62256 11.5938 6.03955 11.6994 5.51349 11.9078C4.98578 12.1167 4.52893 12.4036 4.15558 12.7609C3.79889 13.1022 3.48102 13.5165 3.21075 13.9924C2.9502 14.4511 2.73926 14.9296 2.58398 15.4146C2.43402 15.8835 2.30859 16.3964 2.21118 16.9391C2.1145 17.4771 2.04913 17.9874 2.01672 18.4562C1.98486 18.9145 1.96875 19.3915 1.96875 19.8734C1.96875 21.1262 2.367 22.1404 3.15234 22.8884C3.92798 23.6265 4.9541 24.0008 6.20233 24.0008H17.7585C19.0063 24.0008 20.0325 23.6265 20.8083 22.8884C21.5938 22.141 21.9921 21.1264 21.9921 19.8732C21.9919 19.3896 21.9756 18.9126 21.9435 18.4556ZM19.8386 21.8694C19.326 22.3572 18.6456 22.5943 17.7583 22.5943H6.20233C5.31482 22.5943 4.6344 22.3572 4.12207 21.8696C3.61945 21.3912 3.37518 20.738 3.37518 19.8734C3.37518 19.4237 3.39001 18.9797 3.41968 18.5534C3.44861 18.1352 3.50775 17.6758 3.59546 17.1876C3.68207 16.7055 3.7923 16.253 3.9234 15.8434C4.04919 15.4507 4.22076 15.0618 4.43353 14.6871C4.6366 14.3301 4.87024 14.0237 5.12805 13.7769C5.3692 13.546 5.67316 13.3571 6.03131 13.2153C6.36255 13.0842 6.7348 13.0124 7.13892 13.0016C7.18817 13.0278 7.27588 13.0778 7.41797 13.1705C7.70709 13.3589 8.04034 13.5738 8.40875 13.8091C8.82404 14.0739 9.35907 14.313 9.99829 14.5194C10.6518 14.7307 11.3183 14.838 11.9799 14.838C12.6414 14.838 13.3081 14.7307 13.9612 14.5196C14.601 14.3129 15.1359 14.0739 15.5517 13.8088C15.9287 13.5678 16.2526 13.3591 16.5417 13.1705C16.6838 13.078 16.7715 13.0278 16.8208 13.0016C17.2251 13.0124 17.5974 13.0842 17.9288 13.2153C18.2867 13.3571 18.5907 13.5462 18.8318 13.7769C19.0897 14.0236 19.3233 14.3299 19.5264 14.6873C19.7393 15.0618 19.9111 15.4509 20.0367 15.8433C20.168 16.2534 20.2784 16.7057 20.3648 17.1874C20.4523 17.6765 20.5117 18.1361 20.5406 18.5536V18.5539C20.5704 18.9786 20.5854 19.4224 20.5856 19.8734C20.5854 20.7382 20.3412 21.3912 19.8386 21.8694Z" fill="white"/>
</g>
<defs>
<clipPath id="clip0_2305_1204">
<rect width="24" height="24" fill="white"/>
</clipPath>
</defs>
</svg>
