<svg width="24" height="24" viewBox="0 0 24 24" fill="none" xmlns="http://www.w3.org/2000/svg">
<g clip-path="url(#clip0_2305_1211)">
<path d="M20.7375 23.25H15.6375C14.25 23.25 13.125 22.125 13.125 20.7375V13.875C13.125 13.4625 13.4625 13.125 13.875 13.125H20.7375C22.125 13.125 23.25 14.25 23.25 15.6375V20.7375C23.25 22.125 22.125 23.25 20.7375 23.25ZM14.625 14.625V20.7375C14.625 21.3 15.075 21.75 15.6375 21.75H20.7375C21.3 21.75 21.75 21.3 21.75 20.7375V15.6375C21.75 15.075 21.3 14.625 20.7375 14.625H14.625Z" fill="white"/>
<path d="M8.3625 23.25H3.2625C1.875 23.25 0.75 22.125 0.75 20.7375V15.6375C0.75 14.25 1.875 13.125 3.2625 13.125H10.125C10.5375 13.125 10.875 13.4625 10.875 13.875V20.7375C10.875 22.125 9.75 23.25 8.3625 23.25ZM3.2625 14.625C2.7 14.625 2.25 15.075 2.25 15.6375V20.7375C2.25 21.3 2.7 21.75 3.2625 21.75H8.3625C8.925 21.75 9.375 21.3 9.375 20.7375V14.625H3.2625Z" fill="white"/>
<path d="M20.7375 10.875H13.875C13.4625 10.875 13.125 10.5375 13.125 10.125V3.2625C13.125 1.875 14.25 0.75 15.6375 0.75H20.7375C22.125 0.75 23.25 1.875 23.25 3.2625V8.3625C23.25 9.75 22.125 10.875 20.7375 10.875ZM14.625 9.375H20.7375C21.3 9.375 21.75 8.925 21.75 8.3625V3.2625C21.75 2.7 21.3 2.25 20.7375 2.25H15.6375C15.075 2.25 14.625 2.7 14.625 3.2625V9.375Z" fill="white"/>
<path d="M10.125 10.875H3.2625C1.875 10.875 0.75 9.75 0.75 8.3625V3.2625C0.75 1.875 1.875 0.75 3.2625 0.75H8.3625C9.75 0.75 10.875 1.875 10.875 3.2625V10.125C10.875 10.5375 10.5375 10.875 10.125 10.875ZM3.2625 2.25C2.7 2.25 2.25 2.7 2.25 3.2625V8.3625C2.25 8.925 2.7 9.375 3.2625 9.375H9.375V3.2625C9.375 2.7 8.925 2.25 8.3625 2.25H3.2625Z" fill="white"/>
</g>
<defs>
<clipPath id="clip0_2305_1211">
<rect width="24" height="24" fill="white"/>
</clipPath>
</defs>
</svg>
