<svg width="44" height="44" viewBox="0 0 44 44" fill="none" xmlns="http://www.w3.org/2000/svg">
<g clip-path="url(#clip0_2104_1273)">
<mask id="mask0_2104_1273" style="mask-type:luminance" maskUnits="userSpaceOnUse" x="0" y="0" width="44" height="44">
<path d="M0 3.8147e-06H44V44H0V3.8147e-06Z" fill="white"/>
</mask>
<g mask="url(#mask0_2104_1273)">
<path d="M37.3828 24.6641C37.3828 34.6311 29.303 42.7109 19.3359 42.7109C9.36891 42.7109 1.28906 34.6311 1.28906 24.6641C1.28906 14.697 9.36891 6.61719 19.3359 6.61719C29.303 6.61719 37.3828 14.697 37.3828 24.6641Z" stroke="#063231" stroke-width="2.57812" stroke-miterlimit="10"/>
<path d="M19.3359 34.9766C13.6497 34.9766 9.02344 30.3503 9.02344 24.6641C9.02344 18.9778 13.6497 14.3516 19.3359 14.3516C25.0222 14.3516 29.6484 18.9778 29.6484 24.6641C29.6484 30.3503 25.0222 34.9766 19.3359 34.9766Z" stroke="#063231" stroke-width="2.57812" stroke-miterlimit="10"/>
<path d="M19.3359 27.2422C17.9147 27.2422 16.7578 26.0853 16.7578 24.6641C16.7578 23.2428 17.9147 22.0859 19.3359 22.0859C20.7572 22.0859 21.9141 23.2428 21.9141 24.6641C21.9141 26.0853 20.7572 27.2422 19.3359 27.2422Z" stroke="#063231" stroke-width="2.57812" stroke-miterlimit="10"/>
<path d="M21.1577 22.842L34.8044 9.19534" stroke="#063231" stroke-width="2.57812" stroke-miterlimit="10"/>
<path d="M37.9166 9.729L34.8048 9.19525L34.271 6.08336L37.6794 2.675L38.2131 5.78688L41.325 6.32064L37.9166 9.729Z" stroke="#063231" stroke-width="2.57812" stroke-miterlimit="10"/>
</g>
</g>
<defs>
<clipPath id="clip0_2104_1273">
<rect width="44" height="44" fill="white"/>
</clipPath>
</defs>
</svg>
