<svg width="44" height="44" viewBox="0 0 44 44" fill="none" xmlns="http://www.w3.org/2000/svg">
<mask id="mask0_2104_1314" style="mask-type:luminance" maskUnits="userSpaceOnUse" x="0" y="0" width="44" height="44">
<path d="M0 3.8147e-06H44V44H0V3.8147e-06Z" fill="white"/>
</mask>
<g mask="url(#mask0_2104_1314)">
<path d="M14.2656 3.86719L15.0208 3.11206C16.188 1.94485 17.7712 1.28906 19.4219 1.28906C20.5399 1.28906 21.5173 1.63608 22.3131 2.07608C24.5728 3.32561 27.1521 3.86719 29.7344 3.86719L24.5781 11.7734H19.4219L14.2656 3.86719Z" stroke="#063231" stroke-width="2.58" stroke-miterlimit="10"/>
<path d="M19.4219 11.7734L13.3273 17.868C8.97583 22.2195 6.53125 28.1212 6.53125 34.2751V37.5547C6.53125 40.4024 8.83979 42.7109 11.6875 42.7109H32.3125C35.1602 42.7109 37.4688 40.4024 37.4688 37.5547V34.2751C37.4688 28.1212 35.0242 22.2195 30.6727 17.868L24.5781 11.7734" stroke="#063231" stroke-width="2.58" stroke-miterlimit="10"/>
<path d="M24.5781 27.2422C24.5781 25.8183 23.4238 24.6641 22 24.6641C20.5762 24.6641 19.4219 25.8183 19.4219 27.2422C19.4219 28.6661 20.5762 29.8203 22 29.8203C23.4238 29.8203 24.5781 30.9745 24.5781 32.3984C24.5781 33.8223 23.4238 34.9766 22 34.9766C20.5762 34.9766 19.4219 33.8223 19.4219 32.3984" stroke="#063231" stroke-width="2.58" stroke-miterlimit="10"/>
<path d="M22 20.7969V24.6641" stroke="#063231" stroke-width="2.58" stroke-miterlimit="10"/>
<path d="M22 34.9766V38.8438" stroke="#063231" stroke-width="2.58" stroke-miterlimit="10"/>
<path d="M11.6875 7.90625V9.19531C11.6875 10.6192 12.8418 11.7734 14.2656 11.7734H22" stroke="#063231" stroke-width="2.58" stroke-miterlimit="10"/>
</g>
</svg>
