<svg width="82" height="52" viewBox="0 0 82 52" fill="none" xmlns="http://www.w3.org/2000/svg">
<path d="M1.88508 52C1.04672 52 0.293257 51.4486 0.0664996 50.6307C-0.184971 49.7213 0.295897 48.7691 1.18576 48.4191C7.09559 46.0904 11.4355 42.0986 14.1136 36.5354C5.91747 34.4461 0.000283523 27.1063 0.000283523 18.5714C0.000283523 8.33077 8.4601 0 18.8583 0C29.2565 0 37.7153 8.33077 37.7153 18.5714C37.731 18.712 39.3956 46.4005 2.17089 51.9792C2.07487 51.9937 1.97997 52 1.88508 52ZM18.8583 3.71429C10.5403 3.71429 3.77384 10.3794 3.77384 18.5714C3.77384 26.0526 9.45711 32.3858 16.9927 33.3015C17.5675 33.3723 18.078 33.6979 18.3765 34.1857C18.6759 34.6736 18.7311 35.2694 18.5257 35.8026C17.0122 39.739 14.8582 43.0805 12.0835 45.8074C35.0954 37.8855 33.9631 18.926 33.9474 18.7092C33.9418 10.3794 27.1753 3.71429 18.8583 3.71429Z" fill="#F75709"/>
<path d="M46.1546 52C45.3163 52 44.5628 51.4486 44.336 50.6307C44.0846 49.7213 44.5654 48.7691 45.4553 48.4191C51.3651 46.0904 55.705 42.0986 58.3831 36.5354C50.187 34.4461 44.2698 27.1063 44.2698 18.5714C44.2698 8.33077 52.7296 0 63.1278 0C73.526 0 81.9849 8.33077 81.9849 18.5714C82.0005 18.712 83.6652 46.4005 46.4404 51.9792C46.3444 51.9937 46.2495 52 46.1546 52ZM63.1278 3.71429C54.8099 3.71429 48.0434 10.3794 48.0434 18.5714C48.0434 26.0526 53.7266 32.3858 61.2623 33.3015C61.8371 33.3723 62.3476 33.6979 62.646 34.1857C62.9454 34.6736 63.0007 35.2694 62.7952 35.8026C61.2817 39.739 59.1277 43.0805 56.353 45.8074C79.3649 37.8855 78.2326 18.926 78.217 18.7092C78.2113 10.3794 71.4448 3.71429 63.1278 3.71429Z" fill="#F75709"/>
</svg>
