<svg width="153" height="153" viewBox="0 0 153 153" fill="none" xmlns="http://www.w3.org/2000/svg">
<g clip-path="url(#clip0_2199_15723)">
<path d="M128.766 66.8178C128.696 66.7591 128.622 66.7064 128.543 66.6599C62.6386 27.4005 2.51837 81.0527 1.91931 81.5986C1.59352 81.9013 1.40036 82.3203 1.38181 82.7646C1.36326 83.2089 1.52083 83.6425 1.82027 83.9713C2.1197 84.3 2.53679 84.4973 2.98088 84.5202C3.42496 84.5431 3.86015 84.3899 4.19183 84.0937C4.7744 83.5648 63.0882 31.5954 126.816 69.5588C127.18 69.7755 127.612 69.8473 128.027 69.7598C128.442 69.6723 128.808 69.4321 129.054 69.0868C129.299 68.7415 129.406 68.3164 129.353 67.896C129.299 67.4756 129.09 67.0907 128.766 66.8178Z" fill="#063231" fill-opacity="0.5"/>
<path d="M144.259 79.9614C138.443 71.5562 132.182 59.763 129.829 50.2703L125.384 66.7516L111.421 76.5662C121.148 75.5284 134.369 77.377 144.259 79.9614Z" fill="#063231" fill-opacity="0.5"/>
</g>
<defs>
<clipPath id="clip0_2199_15723">
<rect width="108" height="108" fill="white" transform="matrix(0.766044 0.642788 0.642788 -0.766044 0.72168 83)"/>
</clipPath>
</defs>
</svg>
