<svg width="153" height="153" viewBox="0 0 153 153" fill="none" xmlns="http://www.w3.org/2000/svg">
<g clip-path="url(#clip0_2199_15719)">
<path d="M128.045 86.1861C127.975 86.2448 127.901 86.2976 127.823 86.344C61.9179 125.603 1.79766 71.9512 1.19861 71.4053C0.872819 71.1026 0.679655 70.6836 0.661108 70.2393C0.642561 69.795 0.800129 69.3614 1.09956 69.0326C1.39899 68.7039 1.81609 68.5066 2.26017 68.4837C2.70426 68.4608 3.13944 68.6141 3.47113 68.9102C4.0537 69.4391 62.3676 121.408 126.095 83.4451C126.459 83.2284 126.892 83.1566 127.306 83.2441C127.721 83.3316 128.088 83.5718 128.333 83.9171C128.579 84.2624 128.686 84.6875 128.632 85.1079C128.579 85.5283 128.369 85.9132 128.045 86.1861Z" fill="#063231" fill-opacity="0.5"/>
<path d="M143.538 73.0464C137.722 81.4516 131.462 93.2448 129.109 102.738L124.663 86.2562L110.701 76.4416C120.427 77.4794 133.648 75.6308 143.538 73.0464Z" fill="#063231" fill-opacity="0.5"/>
</g>
<defs>
<clipPath id="clip0_2199_15719">
<rect width="108" height="108" fill="white" transform="translate(0 70) rotate(-40)"/>
</clipPath>
</defs>
</svg>
