<svg width="50" height="50" viewBox="0 0 50 50" fill="none" xmlns="http://www.w3.org/2000/svg">
<path d="M38.2217 21.9436C37.5098 22.6585 36.9647 23.5214 36.6251 24.4706C36.2855 25.4199 36.1599 26.4322 36.257 27.4355L36.2232 27.4018C36.3231 28.5829 36.1634 29.7713 35.7557 30.8845C35.3479 31.9975 34.7018 33.0083 33.8624 33.8465C33.0228 34.6844 32.0102 35.3296 30.895 35.7365C29.7801 36.1436 28.5894 36.3029 27.4065 36.2032L27.4403 36.2369C26.0252 36.1055 24.6039 36.4128 23.37 37.1173C22.1363 37.8217 21.1502 38.8888 20.5464 40.1732C19.9425 41.4576 19.75 42.8965 19.9953 44.2941C20.2408 45.6916 20.9119 46.9796 21.9173 47.9823C22.9228 48.9851 24.2135 49.6539 25.6136 49.8975C27.0139 50.1412 28.4551 49.9477 29.7412 49.3438C31.0272 48.7397 32.0952 47.7545 32.7998 46.5222C33.5043 45.29 33.8111 43.871 33.6781 42.4583L33.7138 42.4921C33.6138 41.3112 33.7733 40.1226 34.1811 39.0094C34.5889 37.8963 35.2352 36.8855 36.0746 36.0474C36.9142 35.2094 37.9268 34.5642 39.0417 34.1573C40.1569 33.7503 41.3474 33.5909 42.5305 33.6906L42.4948 33.6569C43.6507 33.7606 44.8143 33.5714 45.8776 33.1068C46.9407 32.6421 47.8694 31.9171 48.5771 30.9989C49.2848 30.0806 49.7492 28.9988 49.9265 27.8539C50.104 26.7088 49.989 25.5376 49.5923 24.4486C49.1956 23.3598 48.53 22.3885 47.6571 21.6248C46.7843 20.8611 45.7324 20.3297 44.5991 20.08C43.4657 19.8302 42.2874 19.87 41.1736 20.1957C40.0598 20.5215 39.0464 21.1227 38.2273 21.9436H38.2217Z" fill="#F75709"/>
<path d="M24.3645 31.8157L24.3288 31.7819C25.3342 31.883 26.3497 31.7598 27.3018 31.4212C28.2537 31.0825 29.1185 30.5371 29.8333 29.824C30.548 29.1109 31.0954 28.248 31.4351 27.298C31.7751 26.3479 31.8993 25.3344 31.7988 24.3305L31.8345 24.3643C31.7345 23.1832 31.8942 21.9948 32.3018 20.8816C32.7096 19.7686 33.3559 18.7577 34.1953 17.9196C35.0349 17.0817 36.0475 16.4365 37.1624 16.0296C38.2776 15.6224 39.468 15.4632 40.6512 15.5629L40.6155 15.5291C42.0308 15.6619 43.4525 15.3554 44.6869 14.6518C45.9215 13.9482 46.9084 12.8815 47.5132 11.5974C48.118 10.3132 48.3112 8.8741 48.0667 7.47624C47.8221 6.07839 47.1516 4.7899 46.1463 3.7865C45.1413 2.78311 43.8505 2.11365 42.4502 1.86948C41.0499 1.6253 39.6084 1.81826 38.3219 2.42205C37.0355 3.02583 35.9671 4.01107 35.2622 5.24336C34.5572 6.47563 34.2503 7.89497 34.3833 9.30777L34.3495 9.27215C34.4496 10.4532 34.2903 11.6419 33.8828 12.7551C33.4752 13.8684 32.8288 14.8794 31.9894 15.7176C31.1498 16.5555 30.1371 17.2007 29.0219 17.6076C27.9066 18.0145 26.7159 18.1735 25.5328 18.0736L25.5666 18.1092C24.5611 18.0081 23.5455 18.1313 22.5936 18.4699C21.6417 18.8084 20.7769 19.354 20.0621 20.0671C19.3472 20.7802 18.8 21.643 18.4601 22.5931C18.1203 23.5432 17.9961 24.5567 18.0966 25.5606L18.0628 25.5268C18.1624 26.7077 18.0025 27.8961 17.5947 29.0091C17.1868 30.1219 16.5406 31.1328 15.7012 31.9707C14.8617 32.8087 13.8493 33.4537 12.7344 33.861C11.6195 34.268 10.4291 34.4276 9.24609 34.3282L9.2799 34.362C7.86464 34.2292 6.44282 34.5356 5.20839 35.2393C3.97397 35.943 2.98702 37.0095 2.38219 38.2937C1.77735 39.5779 1.58403 41.017 1.82864 42.4148C2.07325 43.8127 2.74388 45.1012 3.74901 46.1045C4.75416 47.1081 6.04489 47.7774 7.44518 48.0216C8.84547 48.2657 10.2871 48.0728 11.5735 47.469C12.8599 46.8652 13.9284 45.8801 14.6332 44.6478C15.3382 43.4154 15.6451 41.9962 15.5121 40.5833L15.5478 40.6171C15.4478 39.436 15.6075 38.2476 16.0153 37.1344C16.4229 36.0214 17.0692 35.0105 17.9086 34.1724C18.7482 33.3344 19.7608 32.6892 20.8757 32.2824C21.9909 31.8753 23.1813 31.7159 24.3645 31.8157Z" fill="#F75709"/>
<path d="M11.7767 28.0522C12.4886 27.3375 13.0337 26.4746 13.373 25.5253C13.7123 24.5759 13.8374 23.5634 13.7395 22.5603L13.7752 22.594C13.6753 21.4128 13.8349 20.2238 14.2429 19.1104C14.6508 17.997 15.2974 16.986 16.1374 16.1479C16.9773 15.3097 17.9903 14.6648 19.1058 14.258C20.2214 13.8512 21.4124 13.6923 22.5957 13.7926L22.56 13.7589C23.9748 13.8912 25.3961 13.5846 26.6299 12.8811C27.8638 12.1775 28.8501 11.1111 29.4547 9.82736C30.0591 8.5436 30.2522 7.10498 30.0076 5.70765C29.7631 4.31032 29.0925 3.02232 28.0878 2.01929C27.0831 1.01626 25.7928 0.347027 24.393 0.10286C22.9933 -0.141325 21.5521 0.0514658 20.2662 0.654889C18.9802 1.25831 17.912 2.24302 17.2073 3.47473C16.5023 4.70644 16.1952 6.1252 16.3278 7.53752L16.294 7.50377C16.3939 8.68475 16.2343 9.87328 15.8265 10.9864C15.4187 12.0995 14.7726 13.1103 13.9331 13.9484C13.0936 14.7864 12.081 15.4315 10.966 15.8385C9.85093 16.2455 8.66035 16.4049 7.4773 16.3052L7.51111 16.3389C6.35515 16.2354 5.19172 16.425 4.12864 16.8898C3.06556 17.3546 2.13722 18.0799 1.42964 18.9983C0.722071 19.9165 0.25817 20.9984 0.0808961 22.1433C-0.0963586 23.2884 0.0187621 24.4595 0.41559 25.5481C0.812417 26.637 1.47814 27.608 2.35104 28.3716C3.22394 29.1353 4.27579 29.6665 5.40911 29.9162C6.54242 30.1658 7.72054 30.1258 8.83432 29.8001C9.94807 29.4743 10.9614 28.8731 11.7805 28.0522H11.7767Z" fill="#F75709"/>
</svg>
