<svg width="60" height="60" viewBox="0 0 60 60" fill="none" xmlns="http://www.w3.org/2000/svg">
<path d="M54.255 50.1963C53.9505 49.021 52.5424 46.8703 49.3522 47.0341C49.3266 47.0355 49.3011 47.0375 49.2756 47.0406L39.9313 48.1312C40.1372 46.4526 39.3445 44.7474 37.8571 43.8494L27.2462 37.4434C22.4838 34.4119 17.9311 34.3741 14.95 34.8769C12.3831 35.3095 10.5227 36.1994 9.82066 36.575H6.72891C6.08051 36.575 5.55469 37.1007 5.55469 37.7492V50.3004C5.55469 50.6119 5.67844 50.9106 5.89863 51.1306C6.11895 51.3508 6.41754 51.4746 6.72891 51.4746L9.8318 51.4745L20.889 57.4067C24.1049 59.1199 27.6821 60 31.2848 59.9999C32.8338 59.9999 34.3876 59.8372 35.9191 59.508C35.9309 59.5056 35.9426 59.5029 35.9541 59.5001C35.9541 59.5001 51.3771 55.6872 51.4109 55.6755C53.7253 54.8733 54.9194 52.5708 54.255 50.1963ZM50.688 53.4403L35.4086 57.216C30.8614 58.1886 26.0977 57.5208 21.9961 55.3359L10.6819 49.2657C10.5111 49.1741 10.3205 49.1262 10.1268 49.1262L7.90301 49.1263V38.9235H10.1268C10.3424 38.9235 10.5537 38.8642 10.7377 38.752C10.8102 38.7078 18.0862 34.3884 25.9962 39.4315C26.0041 39.4366 26.0123 39.4417 26.0205 39.4466L36.6435 45.8598C37.45 46.3467 37.8144 47.3471 37.5102 48.2387C37.1621 49.2588 36.0998 49.8166 35.0702 49.5341L27.0744 45.7112C26.4894 45.4312 25.7883 45.6789 25.5087 46.264C25.2288 46.849 25.4764 47.5501 26.0614 47.8297C26.0614 47.8297 34.2441 51.7377 34.2975 51.7543C35.9339 52.2661 37.6276 51.7846 38.7368 50.6349L49.5071 49.3778C51.4273 49.2969 51.9008 50.5175 51.9834 50.7943C51.9864 50.808 51.9851 50.7999 51.9908 50.8206C52.3261 52.004 51.8152 53.0272 50.688 53.4403Z" fill="white"/>
<path d="M28.9186 29.1961C29.567 29.1961 30.0928 28.6704 30.0928 28.0219V27.4594C31.7278 26.9815 32.7744 25.5574 33.0108 24.1521C33.325 22.2833 32.3114 20.5949 30.4889 19.9506C29.493 19.5986 28.3921 19.1739 27.7789 18.6929C27.603 18.555 27.5285 18.231 27.5935 17.8864C27.6263 17.7121 27.7796 17.1293 28.3717 16.9509C29.4675 16.6213 30.8289 17.2536 31.2625 17.526C31.8085 17.8732 32.5321 17.7138 32.8812 17.169C33.2312 16.6232 33.0725 15.897 32.5266 15.5468C32.3669 15.4444 31.3862 14.8426 30.0928 14.6039V14.2172C30.0928 13.5688 29.5671 13.043 28.9186 13.043C28.2702 13.043 27.7444 13.5687 27.7444 14.2172V14.6885C27.7277 14.6933 27.711 14.6972 27.6943 14.7022C26.4579 15.0745 25.535 16.128 25.2856 17.4513C25.0557 18.6714 25.4556 19.8551 26.3294 20.5405C27.0392 21.0973 28.0175 21.5677 29.7061 22.1646C30.7772 22.5432 30.7544 23.4082 30.6948 23.7626C30.5728 24.4881 29.9625 25.2721 28.9108 25.2791C27.8414 25.2871 27.535 25.2377 26.7232 24.7066C26.1805 24.3517 25.4528 24.5039 25.0978 25.0466C24.743 25.5893 24.8951 26.317 25.4378 26.672C26.3134 27.2447 26.9645 27.485 27.7444 27.5769V28.0215C27.7444 28.6703 28.2701 29.1961 28.9186 29.1961Z" fill="white"/>
<path d="M10.9239 30.221C11.1458 30.4573 11.4555 30.5912 11.7796 30.5912C12.1038 30.5912 12.4134 30.4573 12.6353 30.221L17.6859 24.8463C18.0066 24.5051 18.0938 24.006 17.9079 23.5761C17.722 23.1464 17.2985 22.8681 16.8302 22.8681H16.149C16.149 22.8681 16.1487 21.0443 16.1484 21.0325C16.2843 17.7321 17.6709 14.6468 20.0582 12.3366C22.4697 10.0031 25.6406 8.71805 28.9869 8.71805C36.0726 8.71805 41.8373 14.4827 41.8373 21.5685C41.8373 25.2479 40.2487 28.7598 37.4788 31.2036C37.2444 31.4106 37.1021 31.7025 37.0836 32.0148C37.0651 32.327 37.1719 32.6338 37.3804 32.8669L41.626 37.614C41.8579 37.8734 42.179 38.0055 42.5017 38.0055C42.7786 38.0055 43.0567 37.908 43.2802 37.71C47.9043 33.6107 50.5563 27.7273 50.5563 21.5685C50.5563 18.1627 49.7814 14.9016 48.2533 11.876C47.961 11.2972 47.2549 11.0648 46.676 11.3572C46.0972 11.6495 45.8648 12.3558 46.1572 12.9346C47.5179 15.6289 48.2078 18.5338 48.2078 21.5685C48.2078 26.6664 46.1679 31.553 42.5735 35.1507L39.8885 32.1484C42.6326 29.3204 44.1856 25.527 44.1856 21.5685C44.1856 13.1878 37.3675 6.36961 28.9867 6.36961C25.0277 6.36961 21.277 7.88941 18.4252 10.6489C15.5805 13.4016 13.9375 17.0872 13.7985 21.0267C13.7971 21.0671 13.8006 24.0422 13.8006 24.0422C13.8006 24.4438 14.0022 24.7982 14.3097 25.0099L11.7797 27.7023L9.25857 25.0193C9.57381 24.8087 9.78146 24.4498 9.78146 24.0422C9.78146 24.0422 9.76564 21.8398 9.76564 21.5684C9.76564 10.9704 18.3883 2.34832 28.9869 2.34832C32.7338 2.34832 36.3672 3.43172 39.4941 5.48121C40.0366 5.83687 40.7645 5.685 41.1199 5.14289C41.4753 4.60055 41.3239 3.87258 40.7815 3.51715C37.2708 1.21629 33.1922 0 28.9867 0C17.0931 0 7.41709 9.67559 7.41709 21.5684C7.41709 21.8552 7.43291 22.868 7.43291 22.868H6.72896C6.26068 22.868 5.83717 23.1463 5.65119 23.576C5.46533 24.0057 5.55252 24.505 5.87326 24.8462L10.9239 30.221Z" fill="white"/>
<path d="M44.8264 9.00693C45.3281 8.59795 45.4032 7.85978 44.9942 7.35822C44.5853 6.85654 43.8471 6.78142 43.3455 7.19041C42.8438 7.59939 42.7687 8.33744 43.1777 8.83912C43.5866 9.34068 44.3247 9.41592 44.8264 9.00693Z" fill="white"/>
</svg>
