<svg width="40" height="40" viewBox="0 0 40 40" fill="none" xmlns="http://www.w3.org/2000/svg">
<path d="M33.5749 2.69531H6.38603C3.54332 2.69531 1.23047 5.00771 1.23047 7.85088V24.4899C1.23047 27.3267 3.53325 29.6354 6.36772 29.6455V37.196L17.2188 29.6455H33.5749C36.4176 29.6455 38.7305 27.3326 38.7305 24.4899V7.85088C38.7305 5.00771 36.4176 2.69531 33.5749 2.69531ZM36.5332 24.4899C36.5332 26.1209 35.2061 27.4482 33.5749 27.4482H16.5294L8.56499 32.9903V27.4482H6.38603C4.75479 27.4482 3.42773 26.1209 3.42773 24.4899V7.85088C3.42773 6.21941 4.75479 4.89258 6.38603 4.89258H33.5749C35.2061 4.89258 36.5332 6.21941 36.5332 7.85088V24.4899Z" fill="#063231"/>
<path d="M11.2656 10.4609H28.6922V12.6582H11.2656V10.4609Z" fill="#063231"/>
<path d="M11.2656 15.1484H28.6922V17.3457H11.2656V15.1484Z" fill="#063231"/>
<path d="M11.2656 19.8359H28.6922V22.0332H11.2656V19.8359Z" fill="#063231"/>
</svg>
