<svg width="60" height="60" viewBox="0 0 60 60" fill="none" xmlns="http://www.w3.org/2000/svg">
<g clip-path="url(#clip0_2274_145)">
<path d="M49.9869 33.2736L41.0281 19.2295C42.2974 18.5624 43.1657 17.2313 43.1657 15.7005C43.1657 14.025 42.1256 12.5886 40.6575 12.0007L43.3715 2.51213C43.4886 2.10277 43.3744 1.66224 43.0735 1.36116C41.2681 -0.444102 38.3307 -0.444102 36.5254 1.36116C36.0935 1.79303 35.5194 2.03081 34.9087 2.03081C34.298 2.03081 33.7238 1.79303 33.2893 1.35835L33.2835 1.35261C31.4846 -0.446564 28.5523 -0.451603 26.7461 1.34194L26.7124 1.37546C25.8209 2.26063 24.373 2.25805 23.4848 1.36972L23.4762 1.36116C21.6708 -0.444102 18.7335 -0.444102 16.9281 1.36116C16.6269 1.66247 16.5129 2.10336 16.6302 2.51295L19.35 11.9984C17.8788 12.5849 16.8358 14.0227 16.8358 15.7006C16.8358 17.2314 17.704 18.5625 18.9735 19.2296L10.0145 33.2736C6.54862 38.7067 6.329 45.3243 9.42704 50.9753C12.5251 56.6263 18.2221 60.0001 24.6668 60.0001H35.3345C41.7791 60.0001 47.4761 56.6263 50.5743 50.9753C53.6723 45.3243 53.4528 38.7067 49.9869 33.2736ZM21.8187 3.01853L21.8273 3.02708C23.6265 4.82614 26.5587 4.83106 28.3647 3.03775L28.3984 3.00423C29.2898 2.11906 30.7377 2.12164 31.6287 3.01267L31.6345 3.01841C33.4399 4.82368 36.3772 4.82368 38.1826 3.01841C38.9172 2.28384 40.0313 2.15457 40.8995 2.63061L38.3011 11.7159H21.7075L19.1023 2.6305C19.9704 2.15457 21.0843 2.28407 21.8187 3.01853ZM48.5191 49.8486C45.8388 54.7374 40.9101 57.6563 35.3347 57.6563H24.6669C19.0915 57.6563 14.1628 54.7376 11.4825 49.8486C8.80227 44.9597 8.99224 39.2347 11.9907 34.5341L21.4629 19.6851H24.727C25.3743 19.6851 25.899 19.1604 25.899 18.5132C25.899 17.8659 25.3743 17.3412 24.727 17.3412H20.8205C19.9157 17.3412 19.1797 16.6052 19.1797 15.7005C19.1797 14.7958 19.9157 14.0598 20.8205 14.0598H20.8243H39.181C40.0857 14.0598 40.8217 14.7958 40.8217 15.7005C40.8217 16.6052 40.0857 17.3412 39.181 17.3412H35.2745C34.6273 17.3412 34.1026 17.8659 34.1026 18.5132C34.1026 19.1604 34.6273 19.6851 35.2745 19.6851H38.5385L48.0109 34.5341C51.0093 39.2346 51.1993 44.9595 48.5191 49.8486Z" fill="white"/>
<path d="M32.0666 38.2732C31.7726 38.1692 31.4724 38.061 31.1724 37.9487V32.6372C31.967 32.871 32.4976 33.2501 32.5201 33.2665C33.0357 33.6527 33.7671 33.5502 34.1566 33.0361C34.5475 32.5202 34.4461 31.7852 33.9302 31.3942C33.8614 31.342 32.7718 30.5332 31.1724 30.2269V29.0606C31.1724 28.4134 30.6477 27.8887 30.0005 27.8887C29.3532 27.8887 28.8285 28.4134 28.8285 29.0606V30.2185C28.63 30.2566 28.4288 30.3048 28.2248 30.366C26.5754 30.8617 25.3426 32.2722 25.0073 34.0472C24.7013 35.668 25.2206 37.2313 26.3625 38.1269C26.9822 38.6129 27.7565 39.0567 28.8285 39.5281V46.3249C27.9056 46.2665 27.2882 46.0565 26.259 45.3832C25.7175 45.0287 24.991 45.1807 24.6367 45.7224C24.2823 46.2641 24.4342 46.9903 24.9759 47.3447C26.4766 48.3265 27.4928 48.6046 28.8285 48.6703V49.8822C28.8285 50.5295 29.3532 51.0542 30.0005 51.0542C30.6477 51.0542 31.1724 50.5295 31.1724 49.8822V48.5486C33.682 47.9989 35.1498 45.9048 35.4791 43.9457C35.9095 41.3846 34.5701 39.158 32.0666 38.2732ZM27.809 36.2825C27.3585 35.9292 27.1675 35.2392 27.3105 34.482C27.442 33.7857 27.9105 32.946 28.8285 32.6353V36.9273C28.4432 36.7219 28.0955 36.5072 27.809 36.2825ZM33.1675 43.557C32.9988 44.5608 32.3213 45.6254 31.1723 46.0958V40.4424C31.2105 40.456 31.2467 40.4693 31.2854 40.483C33.3866 41.2257 33.2573 43.0237 33.1675 43.557Z" fill="white"/>
<path d="M30.0001 19.6847C30.3083 19.6847 30.6107 19.5593 30.8286 19.3413C31.0466 19.1234 31.172 18.821 31.172 18.5128C31.172 18.2045 31.0466 17.9022 30.8286 17.6842C30.6107 17.4662 30.3083 17.3408 30.0001 17.3408C29.6918 17.3408 29.3895 17.4662 29.1715 17.6842C28.9535 17.9022 28.8281 18.2045 28.8281 18.5128C28.8281 18.821 28.9535 19.1234 29.1715 19.3413C29.3895 19.5593 29.6917 19.6847 30.0001 19.6847Z" fill="white"/>
</g>
<defs>
<clipPath id="clip0_2274_145">
<rect width="60" height="60" fill="white"/>
</clipPath>
</defs>
</svg>
