<svg width="60" height="60" viewBox="0 0 60 60" fill="none" xmlns="http://www.w3.org/2000/svg">
<path d="M7.46094 10.4793V3.51758C7.46094 2.22313 8.51023 1.17383 9.80469 1.17383H41.8177" stroke="white" stroke-width="2.34375" stroke-miterlimit="10" stroke-linecap="round" stroke-linejoin="round"/>
<path d="M52.5338 11.8867V56.4844C52.5338 57.7789 51.4845 58.8282 50.1901 58.8282H9.80469C8.51023 58.8282 7.46094 57.7789 7.46094 56.4844V21.1573" stroke="white" stroke-width="2.34375" stroke-miterlimit="10" stroke-linecap="round" stroke-linejoin="round"/>
<path d="M52.535 11.8867H43.5559C42.5973 11.8867 41.8203 11.1096 41.8203 10.151V1.17188L52.535 11.8867Z" stroke="white" stroke-width="2.34375" stroke-miterlimit="10" stroke-linecap="round" stroke-linejoin="round"/>
<circle cx="7.46094" cy="15.8281" r="1.17188" fill="white"/>
<path d="M29.9957 37.2189C36.8537 37.2189 42.4132 31.6593 42.4132 24.8013C42.4132 17.9433 36.8537 12.3838 29.9957 12.3838C23.1376 12.3838 17.5781 17.9433 17.5781 24.8013C17.5781 31.6593 23.1376 37.2189 29.9957 37.2189Z" stroke="white" stroke-width="2.34375" stroke-miterlimit="10" stroke-linecap="round" stroke-linejoin="round"/>
<path d="M33.2086 17.773L22.9664 28.0141C22.5164 27.0355 22.2656 25.9469 22.2656 24.802C22.2656 20.5398 25.7332 17.0723 29.9953 17.0723C31.1414 17.0723 32.2301 17.323 33.2086 17.773Z" stroke="white" stroke-width="2.34375" stroke-miterlimit="10" stroke-linecap="round" stroke-linejoin="round"/>
<path d="M37.7289 24.802C37.7289 29.0641 34.2613 32.5316 29.9992 32.5316C28.5895 32.5316 27.2652 32.152 26.125 31.4898L36.6871 20.9277C37.3492 22.068 37.7289 23.3922 37.7289 24.802Z" stroke="white" stroke-width="2.34375" stroke-miterlimit="10" stroke-linecap="round" stroke-linejoin="round"/>
<path d="M17.875 43.2969H42.1129" stroke="white" stroke-width="2.34375" stroke-miterlimit="10" stroke-linecap="round" stroke-linejoin="round"/>
<path d="M17.875 47.9844H42.1129" stroke="white" stroke-width="2.34375" stroke-miterlimit="10" stroke-linecap="round" stroke-linejoin="round"/>
<path d="M17.875 52.6719H29.9939" stroke="white" stroke-width="2.34375" stroke-miterlimit="10" stroke-linecap="round" stroke-linejoin="round"/>
</svg>
