<svg width="60" height="60" viewBox="0 0 60 60" fill="none" xmlns="http://www.w3.org/2000/svg">
<g clip-path="url(#clip0_2274_131)">
<path d="M54.6539 10.3607C46.3986 8.09873 38.0949 4.57666 30.6402 0.175341C30.2442 -0.0584472 29.7529 -0.0584472 29.357 0.175341C21.6873 4.70311 13.8323 8.03462 5.34265 10.3607C4.79422 10.5108 4.41406 11.0093 4.41406 11.578V24.474C4.41406 37.754 10.5405 46.5445 15.6801 51.5801C21.2132 57.0018 27.6585 60 29.9986 60C32.3385 60 38.7838 57.0018 44.3169 51.5801C49.4564 46.5446 55.5825 37.7541 55.5825 24.474V11.5779C55.5825 11.0093 55.2023 10.5108 54.6539 10.3607ZM53.0583 24.4739C53.0583 36.8773 47.3441 45.0799 42.5502 49.777C37.1091 55.1084 31.2915 57.4756 29.9986 57.4756C28.7057 57.4756 22.8878 55.1084 17.4466 49.777C12.6528 45.0798 6.93839 36.8773 6.93839 24.4739V12.536C15.0569 10.2309 22.6176 7.01404 29.9989 2.72463C37.1958 6.90025 45.1337 10.2771 53.0583 12.5356V24.4739Z" fill="white"/>
<path d="M18.8138 12.3946C18.5583 11.746 17.8255 11.4274 17.1768 11.683C14.9221 12.5713 12.6079 13.3891 10.2985 14.1135C9.77219 14.2788 9.41406 14.7663 9.41406 15.3177V20.1917C9.41406 20.8887 9.97926 21.4538 10.6762 21.4538C11.3731 21.4538 11.9383 20.8887 11.9383 20.1917V16.2401C14.01 15.5698 16.0796 14.8284 18.1021 14.0314C18.7507 13.776 19.0694 13.0433 18.8138 12.3946Z" fill="white"/>
<path d="M21.2103 12.6346C21.3796 12.6346 21.5516 12.6005 21.7164 12.5286L21.7396 12.5185C22.3782 12.2386 22.6658 11.4953 22.3859 10.857C22.1058 10.2185 21.3583 9.92959 20.7205 10.2092L20.7001 10.218C20.0612 10.497 19.7727 11.2397 20.0517 11.8784C20.2587 12.3526 20.7234 12.6346 21.2103 12.6346Z" fill="white"/>
<path d="M45.038 40.6978C44.4548 40.3166 43.6727 40.4806 43.291 41.064C42.251 42.6559 41.0308 44.1803 39.6639 45.5944C38.5399 46.7571 37.3218 47.8409 36.0437 48.8153C35.4895 49.2379 35.3828 50.0298 35.8053 50.5842C36.0539 50.9099 36.4297 51.0812 36.8098 51.0812C37.0768 51.0812 37.3457 50.997 37.5742 50.8226C38.953 49.7713 40.2666 48.6026 41.4786 47.3489C42.9564 45.8203 44.2771 44.1703 45.4042 42.4447C45.7857 41.8612 45.6215 41.079 45.038 40.6978Z" fill="white"/>
<path d="M33.1087 50.7942L33.0363 50.8368C32.4331 51.1862 32.227 51.9582 32.5762 52.5614C32.8103 52.9657 33.2339 53.1914 33.6697 53.1914C33.8842 53.1914 34.1019 53.1366 34.3008 53.0212L34.3843 52.9721C34.9858 52.6198 35.1879 51.8468 34.8356 51.2452C34.4831 50.6439 33.7099 50.4423 33.1087 50.7942Z" fill="white"/>
<path d="M21.3946 27.4242C20.6197 26.6491 19.589 26.2226 18.4929 26.2226C17.3967 26.2226 16.3659 26.6492 15.5906 27.4242C13.9906 29.0245 13.9906 31.6284 15.5906 33.2286L23.0432 40.681C23.8183 41.4559 24.849 41.8825 25.9453 41.8825C27.0415 41.8825 28.0722 41.4559 28.8474 40.6808L44.4053 25.1228C46.0051 23.5221 46.0051 20.9185 44.4051 19.3188C43.63 18.5437 42.5993 18.1172 41.5029 18.1172C40.4066 18.1172 39.376 18.5439 38.6008 19.3188L25.9451 31.9745L21.3946 27.4242ZM40.3858 21.1038C40.684 20.8056 41.0809 20.6414 41.503 20.6414C41.9254 20.6414 42.3219 20.8056 42.6204 21.1038C43.2362 21.7196 43.2362 22.7221 42.6202 23.3381L27.0625 38.8959C26.7643 39.1941 26.3674 39.3583 25.9453 39.3583C25.5232 39.3583 25.1262 39.1941 24.8279 38.8959L17.3755 31.4437C16.7594 30.8277 16.7594 29.8253 17.3752 29.2094C17.6736 28.9112 18.0705 28.7468 18.4927 28.7468C18.915 28.7468 19.3116 28.911 19.6099 29.2092L25.0526 34.6521C25.2895 34.8887 25.6103 35.0217 25.9451 35.0217C26.2799 35.0217 26.6008 34.8888 26.8374 34.6521L40.3858 21.1038Z" fill="white"/>
</g>
<defs>
<clipPath id="clip0_2274_131">
<rect width="60" height="60" fill="white"/>
</clipPath>
</defs>
</svg>
