<svg width="24" height="24" viewBox="0 0 24 24" fill="none" xmlns="http://www.w3.org/2000/svg">
<path d="M21.6503 19.8776C20.2225 17.4091 18.0222 15.6391 15.4544 14.8001C16.7246 14.0439 17.7114 12.8917 18.2634 11.5205C18.8153 10.1492 18.9019 8.63468 18.5098 7.20945C18.1177 5.78422 17.2685 4.52711 16.0928 3.63117C14.9171 2.73523 13.4798 2.25 12.0016 2.25C10.5234 2.25 9.08609 2.73523 7.91037 3.63117C6.73465 4.52711 5.88553 5.78422 5.49342 7.20945C5.1013 8.63468 5.18787 10.1492 5.73983 11.5205C6.2918 12.8917 7.27863 14.0439 8.54878 14.8001C5.98097 15.6382 3.78066 17.4082 2.35285 19.8776C2.30049 19.9629 2.26576 20.0579 2.2507 20.1569C2.23565 20.256 2.24059 20.357 2.26521 20.4541C2.28984 20.5511 2.33366 20.6423 2.39409 20.7222C2.45452 20.802 2.53033 20.869 2.61706 20.9191C2.70378 20.9692 2.79966 21.0014 2.89904 21.0138C2.99842 21.0263 3.09928 21.0187 3.19568 20.9915C3.29208 20.9643 3.38205 20.9181 3.4603 20.8556C3.53855 20.7931 3.60349 20.7156 3.65128 20.6276C5.41753 17.5751 8.53941 15.7526 12.0016 15.7526C15.4638 15.7526 18.5857 17.5751 20.3519 20.6276C20.3997 20.7156 20.4646 20.7931 20.5429 20.8556C20.6211 20.9181 20.7111 20.9643 20.8075 20.9915C20.9039 21.0187 21.0048 21.0263 21.1042 21.0138C21.2035 21.0014 21.2994 20.9692 21.3861 20.9191C21.4729 20.869 21.5487 20.802 21.6091 20.7222C21.6695 20.6423 21.7134 20.5511 21.738 20.4541C21.7626 20.357 21.7675 20.256 21.7525 20.1569C21.7374 20.0579 21.7027 19.9629 21.6503 19.8776ZM6.7516 9.00255C6.7516 7.9642 7.0595 6.94917 7.63638 6.08581C8.21326 5.22245 9.0332 4.54954 9.99251 4.15218C10.9518 3.75482 12.0074 3.65086 13.0258 3.85343C14.0442 4.056 14.9797 4.55601 15.7139 5.29024C16.4481 6.02447 16.9481 6.95993 17.1507 7.97833C17.3533 8.99673 17.2493 10.0523 16.852 11.0116C16.4546 11.971 15.7817 12.7909 14.9183 13.3678C14.055 13.9446 13.0399 14.2526 12.0016 14.2526C10.6097 14.2511 9.27517 13.6975 8.29093 12.7132C7.30669 11.729 6.75309 10.3945 6.7516 9.00255Z" fill="#F75709"/>
</svg>
