<svg viewBox="0 0 80 100" xmlns="http://www.w3.org/2000/svg" role="img" aria-label="United Arab Emirates">
  <!-- Circular base -->
  <circle cx="40" cy="48" r="36" fill="#0B0F14" stroke="#C9A86A" stroke-width="1.5"/>
  <!-- Falcon body stylised as wings + head (simplified) -->
  <g fill="#C9A86A">
    <!-- body/head -->
    <path d="M40 30 C46 30 52 36 48 42 C46 44 42 44 40 44 C38 44 34 44 32 42 C28 36 34 30 40 30 Z"/>
    <!-- left wing -->
    <path d="M10 48 C16 40 28 40 36 46 C28 52 22 56 14 58 C10 56 8 52 10 48 Z"/>
    <!-- right wing -->
    <path d="M70 48 C64 40 52 40 44 46 C52 52 58 56 66 58 C70 56 72 52 70 48 Z"/>
    <!-- tail -->
    <path d="M32 62 L40 80 L48 62 L44 66 L40 72 L36 66 Z"/>
  </g>
  <!-- Small shield with 7 stars on falcon chest (UAE 7 emirates) -->
  <circle cx="40" cy="50" r="6" fill="#FFFFFF"/>
  <g fill="#7A1E26">
    <circle cx="40" cy="47" r="0.8"/>
    <circle cx="37" cy="48.5" r="0.8"/>
    <circle cx="43" cy="48.5" r="0.8"/>
    <circle cx="36" cy="51" r="0.8"/>
    <circle cx="44" cy="51" r="0.8"/>
    <circle cx="38" cy="53" r="0.8"/>
    <circle cx="42" cy="53" r="0.8"/>
  </g>
</svg>
