<svg width="32" height="32" viewBox="0 0 32 32" fill="none" xmlns="http://www.w3.org/2000/svg">
<path d="M16.0001 22.4001C12.4655 22.4001 9.6001 19.5347 9.6001 16.0001C9.6001 12.4655 12.4655 9.6001 16.0001 9.6001C19.5347 9.6001 22.4001 12.4655 22.4001 16.0001C22.4001 19.5347 19.5347 22.4001 16.0001 22.4001Z" fill="#F75709"/>
<path d="M3.60099 18.1861C1.74632 18.5131 0.475044 20.3047 1.18699 22.0482C2.18095 24.4824 3.76669 26.6511 5.82249 28.3458C8.76213 30.769 12.4699 32.0638 16.2789 31.9974C20.088 31.9309 23.7484 30.5074 26.6017 27.9831C28.597 26.2177 30.1061 23.9949 31.0146 21.5276C31.6653 19.7602 30.3322 18.0141 28.4672 17.752C26.6023 17.49 24.9279 18.8474 24.0067 20.4901C23.5074 21.3804 22.8592 22.1882 22.0827 22.8752C20.4455 24.3237 18.3454 25.1403 16.16 25.1785C13.9745 25.2166 11.8471 24.4737 10.1605 23.0833C9.36042 22.4238 8.68447 21.6392 8.15436 20.7668C7.17645 19.1573 5.45565 17.859 3.60099 18.1861Z" fill="#F75709"/>
<path d="M31.8763 17.9995C31.958 17.3444 32 16.6771 32 16C32 7.16345 24.8366 0 16 0C7.16345 0 0 7.16345 0 16C0 16.869 0.06928 17.7218 0.202624 18.5533C0.937536 17.5472 2.08454 16.829 3.32348 16.6106C4.66395 16.3742 5.88222 16.6993 6.91229 17.307C6.85144 16.8801 6.81995 16.4437 6.81995 16C6.81995 10.93 10.93 6.81995 16 6.81995C21.07 6.81995 25.1801 10.93 25.1801 16C25.1801 16.3343 25.1621 16.6644 25.1274 16.9894C26.1357 16.3459 27.3421 15.9782 28.6902 16.1678C29.9357 16.3428 31.1067 17.0202 31.8763 17.9995Z" fill="#063231"/>
</svg>
